<?xml version="1.0" encoding="utf-8"?>
<!-- Generator: Adobe Illustrator 27.9.0, SVG Export Plug-In . SVG Version: 6.00 Build 0)  -->
<svg version="1.1" id="svg" xmlns="http://www.w3.org/2000/svg" xmlns:xlink="http://www.w3.org/1999/xlink" x="0px" y="0px"
	 viewBox="0 0 614 1142.2" style="enable-background:new 0 0 614 1142.2;" xml:space="preserve">
<style type="text/css">
	.st0{fill:#A6D9D9;stroke:#FFFFFF;stroke-width:0.5;}
	.st1{fill:#5AC8C0;stroke:#FFFFFF;stroke-width:0.5;}
	.st2{fill:#00A097;stroke:#FFFFFF;stroke-width:0.5;}
	.st3{opacity:0;fill:#3A9C96;enable-background:new    ;}
	.st4{font-family:'Arial-BoldMT';}
	.st5{font-size:20px;}
	.st6{opacity:0;fill:#FFFFFF;enable-background:new    ;}
	.st7{font-size:18px;}
	.st8{fill:#3A9C96;}
	.st9{fill:#FFFFFF;}
	.st10{fill:#2D726E;}
	.st11{fill:#2D726E;fill-opacity:0;}
</style>
<path class="st0" d="M325,0h2h2h2h2h2h1h2h2h2h2h2h2h2h2h2h1h2h2h2h2h2h2h2h2h2h1h2h2h2h2h2h2h2h2h2h1h2h2h2h2h2h2h2h2h2h1h2h2h2h2
	h2h2h2h2h1h2h2h2h2h2h2h2h2h2h2h1h2h2h2h2h2h2h2h2h2h1h2h2h2h2h2h2h2h2h2h1h2h2h2h2h2h2h2h2h2h1h2h2h2h2h2h2h2h2h2h1h2h2h2h2h2h2h2
	h2h2h1h2h2h2h2h2h2h2h2h2h1h2h2h2h2h2h2h2h2h2h1h2h2h2h2h2h2h2h2h2h1h2h2h2h2v38.3l-2,0.1l-2,0.1l-2,0.1l-2,0.1l-1,0.1l-2,0.1
	l-2,0.1l-2,0.1l-2,0.1l-2,0.1l-2,0.1l-2,0.1l-2,0.1l-2,0.1l-1,0.2l-2,0.2l-2,0.2l-2,0.2l-2,0.2l-2,0.2l-2,0.2l-2,0.2l-2,0.2l-2,0.2
	l-1,0.2l-2,0.2l-2,0.2l-2,0.2l-2,0.2l-2,0.2l-2,0.2l-2,0.2l-2,0.2l-2,0.2l-1,0.2l-2,0.2l-2,0.2l-2,0.3l-2,0.3l-2,0.3l-2,0.3l-2,0.3
	l-2,0.4l-2,0.4l-1,0.4l-2,0.4l-2,0.5l-2,0.5l-2,0.5l-2,0.5l-2,0.5l-2,0.5l-2,0.5l-2,0.6l-1,0.6l-2,0.6l-2,0.6l-2,0.6l-2,0.6l-2,0.6
	l-2,0.6l-2,0.6l-2,0.5l-2,0.5l-1,0.5l-2,0.6l-2,0.7l-2,0.7l-2,0.8l-2,0.8l-2,0.8l-2,0.9l-2,1l-2,1l-1,1.1l-2,1.1l-2,1.2l-2,1.1l-2,1
	l-2,1.2l-2,1.3l-2,1.4l-2,1.4l-2,1.4l-1,1.4l-2,1.4l-2,1.3l-2,1.3l-2,1.2l-2,1.2l-2,1.2l-2,1.2l-2,1.2l-2,1.2l-2,1.1l-1,1.1l-2,1.1
	l-2,1.1l-2,1l-2,1l-2,1l-2,1l-2,0.9l-2,0.9l-1,0.8l-2,0.8l-2,0.7l-2,0.6l-2,0.6l-2,0.6l-2,0.6l-2,0.6l-2,0.5l-2,0.4l-1,0.4l-2,0.4
	l-2,0.4l-2,0.4l-2,0.4l-2,0.4l-2,0.4l-2,0.5l-2,0.5l-2,0.5l-1,0.4l-2,0.4l-2,0.4l-2,0.4l-2,0.4l-2,0.4l-2,0.3l-2,0.3l-2,0.2l-2,0.2
	l-1,0.1l-2,0l-2-0.4l-2-0.7l-2-0.7l-2-0.8l-2-0.8l-2-0.9l-2-0.9l-2-0.9l-1-0.9l-2-0.8l-2-0.7l-2-0.5l-2-0.4l-2-0.4V0z"/>
<path class="st1" d="M325,104.3l2,0.4l2,0.4l2,0.5l2,0.7l2,0.8l1,0.9l2,0.9l2,0.9l2,0.9l2,0.8l2,0.8l2,0.7l2,0.7l2,0.4l2,0l1-0.1
	l2-0.2l2-0.2l2-0.3l2-0.3l2-0.4l2-0.4l2-0.4l2-0.4l2-0.4l1-0.4l2-0.5l2-0.5l2-0.5l2-0.4l2-0.4l2-0.4l2-0.4l2-0.4l2-0.4l1-0.4l2-0.4
	l2-0.5l2-0.6l2-0.6l2-0.6l2-0.6l2-0.6l2-0.7l2-0.8l1-0.8l2-0.9l2-0.9l2-1l2-1l2-1l2-1l2-1.1l2-1.1l1-1.1l2-1.1l2-1.2l2-1.2l2-1.2
	l2-1.2l2-1.2l2-1.2l2-1.3l2-1.3l2-1.4l1-1.4l2-1.4l2-1.4l2-1.4l2-1.3l2-1.2l2-1l2-1.1l2-1.2l2-1.1l1-1.1l2-1l2-1l2-0.9l2-0.8l2-0.8
	l2-0.8l2-0.7l2-0.7l2-0.6l1-0.5l2-0.5l2-0.5l2-0.6l2-0.6l2-0.6l2-0.6l2-0.6l2-0.6l2-0.6l1-0.6l2-0.6l2-0.5l2-0.5l2-0.5l2-0.5l2-0.5
	l2-0.5l2-0.5l2-0.4l1-0.4l2-0.4l2-0.4l2-0.3l2-0.3l2-0.3l2-0.3l2-0.3l2-0.2l2-0.2l1-0.2l2-0.2l2-0.2l2-0.2l2-0.2l2-0.2l2-0.2l2-0.2
	l2-0.2l2-0.2l1-0.2l2-0.2l2-0.2l2-0.2l2-0.2l2-0.2l2-0.2l2-0.2l2-0.2l2-0.2l1-0.2l2-0.1l2-0.1l2-0.1l2-0.1l2-0.1l2-0.1l2-0.1l2-0.1
	l2-0.1l1-0.1l2-0.1l2-0.1l2-0.1l2-0.1V193l-2,0.4l-2,0.4l-2,0.4l-2,0.4l-1,0.4l-2,0.4l-2,0.4l-2,0.4l-2,0.4l-2,0.4l-2,0.5l-2,0.4
	l-2,0.4l-2,0.4l-1,0.4l-2,0.5l-2,0.5l-2,0.6l-2,0.6l-2,0.7l-2,0.7l-2,0.7l-2,0.8l-2,0.8l-1,0.9l-2,0.9l-2,0.9l-2,0.9l-2,0.9l-2,1
	l-2,1l-2,1.1l-2,1.1l-2,1.2l-1,1.2l-2,1.1l-2,1.1l-2,1.1l-2,1.1l-2,1.1l-2,1.2l-2,1.1l-2,1.1l-2,1.1l-1,1.1l-2,1.1l-2,1.1l-2,1.1
	l-2,1.1l-2,1.1l-2,1.1l-2,1l-2,1l-2,1l-1,1l-2,0.9l-2,0.9l-2,0.8l-2,0.8l-2,0.8l-2,0.8l-2,0.8l-2,0.8l-2,0.8l-1,0.8l-2,0.7l-2,0.7
	l-2,0.7l-2,0.7l-2,0.7l-2,0.7l-2,0.7l-2,0.7l-2,0.7l-1,0.7l-2,0.7l-2,0.7l-2,0.5l-2,0.3l-2,0.4l-2,0.6l-2,0.6l-2,0.6l-2,0.6l-1,0.5
	l-2,0.5l-2,0.4l-2,0.3l-2,0.2l-2,0.2l-2,0.2l-2,0.2l-2,0.1l-2,0.1l-2,0.1l-1,0.2l-2,0.2l-2,0.2l-2,0.2l-2,0.2l-2,0.2l-2,0.1l-2,0.1
	l-2,0.1l-1,0.1l-2,0.1l-2,0.1l-2,0.1l-2,0.1l-2,0.1l-2,0.1l-2,0l-2,0l-2,0l-1,0l-2,0l-2,0l-2,0l-2,0l-2,0l-2,0l-2,0.1l-2,0.1l-2,0.1
	l-1,0.1l-2,0.1l-2,0.1l-2,0.1l-2,0.1l-2,0.1l-2,0l-2,0l-2,0l-2,0l-1,0.1l-2,0.1l-2,0.2l-2,0.2l-2,0.2l-2,0.1l-2,0.1l-2,0l-2,0l-2,0
	l-1,0l-2,0.1l-2,0.1l-2,0.2l-2,0.1l-2,0V104.3z"/>
<path class="st2" d="M325,266.5l2,0l2-0.1l2-0.2l2-0.1l2-0.1l1,0l2,0l2,0l2,0l2-0.1l2-0.1l2-0.2l2-0.2l2-0.2l2-0.1l1-0.1l2,0l2,0
	l2,0l2,0l2-0.1l2-0.1l2-0.1l2-0.1l2-0.1l1-0.1l2-0.1l2-0.1l2-0.1l2,0l2,0l2,0l2,0l2,0l2,0l1,0l2,0l2,0l2,0l2-0.1l2-0.1l2-0.1l2-0.1
	l2-0.1l2-0.1l1-0.1l2-0.1l2-0.1l2-0.1l2-0.2l2-0.2l2-0.2l2-0.2l2-0.2l1-0.2l2-0.1l2-0.1l2-0.1l2-0.2l2-0.2l2-0.2l2-0.2l2-0.3l2-0.4
	l2-0.5l1-0.5l2-0.6l2-0.6l2-0.6l2-0.6l2-0.4l2-0.3l2-0.5l2-0.7l2-0.7l1-0.7l2-0.7l2-0.7l2-0.7l2-0.7l2-0.7l2-0.7l2-0.7l2-0.7l2-0.7
	l1-0.8l2-0.8l2-0.8l2-0.8l2-0.8l2-0.8l2-0.8l2-0.8l2-0.9l2-0.9l1-1l2-1l2-1l2-1l2-1.1l2-1.1l2-1.1l2-1.1l2-1.1l2-1.1l1-1.1l2-1.1
	l2-1.1l2-1.1l2-1.2l2-1.1l2-1.1l2-1.1l2-1.1l2-1.1l1-1.2l2-1.2l2-1.1l2-1.1l2-1l2-1l2-0.9l2-0.9l2-0.9l2-0.9l1-0.9l2-0.8l2-0.8
	l2-0.7l2-0.7l2-0.7l2-0.6l2-0.6l2-0.5l2-0.5l1-0.4l2-0.4l2-0.4l2-0.4l2-0.5l2-0.4l2-0.4l2-0.4l2-0.4l2-0.4l1-0.4l2-0.4l2-0.4l2-0.4
	l2-0.4v82h-2h-2h-2h-2h-1h-2h-2h-2h-2h-2h-2h-2h-2h-2h-1h-2h-2h-2h-2h-2h-2h-2h-2h-2h-1h-2h-2h-2h-2h-2h-2h-2h-2h-2h-1h-2h-2h-2h-2
	h-2h-2h-2h-2h-2h-1h-2h-2h-2h-2h-2h-2h-2h-2h-2h-1h-2h-2h-2h-2h-2h-2h-2h-2h-2h-1h-2h-2h-2h-2h-2h-2h-2h-2h-2h-1h-2h-2h-2h-2h-2h-2
	h-2h-2h-2h-1h-2h-2h-2h-2h-2h-2h-2h-2h-2h-2h-1h-2h-2h-2h-2h-2h-2h-2h-2h-1h-2h-2h-2h-2h-2h-2h-2h-2h-2h-1h-2h-2h-2h-2h-2h-2h-2h-2
	h-2h-1h-2h-2h-2h-2h-2h-2h-2h-2h-2h-1h-2h-2h-2h-2h-2h-2h-2h-2h-2h-1h-2h-2h-2h-2h-2V266.5z"/>
<path class="st0" d="M0,578.4h2h2h2h2h2h1h2h2h2h2h2h2h2h2h2h1h2h2h2h2h2h2h2h2h2h1h2h2h2h2h2h2h2h2h2h1h2h2h2h2h2h2h2h2h2h1h2h2h2
	h2h2h2h2h2h1h2h2h2h2h2h2h2h2h2h2h1h2h2h2h2h2h2h2h2h2h1h2h2h2h2h2h2h2h2h2h1h2h2h2h2h2h2h2h2h2h1h2h2h2h2h2h2h2h2h2h1h2h2h2h2h2h2
	h2h2h2h1h2h2h2h2h2h2h2h2h2h1h2h2h2h2h2h2h2h2h2h1h2h2h2h2h2h2h2h2h2h1h2h2h2h2v30.5l-2,0l-2,0l-2,0l-2,0l-1,0.1l-2,0.1l-2,0.1
	l-2,0.1l-2,0.1l-2,0.1l-2,0.1l-2,0.1l-2,0.1l-2,0l-1,0l-2,0l-2,0l-2,0l-2,0l-2-0.1l-2-0.1l-2-0.1l-2-0.1l-2-0.1l-1-0.1l-2-0.1
	l-2-0.1l-2-0.2l-2-0.1l-2-0.1l-2-0.1l-2-0.1l-2-0.1l-2-0.1l-1,0l-2,0l-2,0l-2,0l-2,0.1l-2,0.1l-2,0.1l-2,0.1l-2,0.1l-2,0.1l-1,0.1
	l-2,0.1l-2,0.1l-2,0.1l-2,0.1l-2,0l-2,0l-2,0l-2,0l-2,0l-1-0.1l-2-0.1l-2-0.1l-2-0.1l-2-0.1l-2-0.1l-2-0.1l-2-0.1l-2-0.1l-2-0.1
	l-1-0.1l-2,0l-2,0l-2,0.1l-2,0.2l-2,0.2l-2,0.3l-2,0.4l-2,0.4l-2,0.5l-1,0.6l-2,0.6l-2,0.6l-2,0.6l-2,0.6l-2,0.6l-2,0.6l-2,0.5
	l-2,0.5l-2,0.4l-1,0.4l-2,0.3l-2,0.3l-2,0.2l-2,0.1l-2,0.1l-2,0l-2,0l-2,0l-2,0.1l-2,0l-1,0l-2,0.1l-2,0.1l-2,0.1l-2,0.1l-2,0.1
	l-2,0.2l-2,0.2l-2,0.3l-1,0.3l-2,0.4l-2,0.6l-2,0.6l-2,1.6l-2,1.9l-2,1.4l-2,1.5l-2,1.5l-2,1.6l-1,1.6l-2,1.6l-2,1.6l-2,1.5l-2,1.6
	l-2,1.7l-2,1.6l-2,1.4l-2,1.1l-2,0.9l-1,0.7l-2,0.5l-2,0.2l-2,0.1l-2,0.1l-2,0.1l-2,0l-2-0.2l-2-0.2l-2-0.2l-1-0.1l-2,0l-2,0.2
	l-2,0.6l-2,0.6l-2,0.2l-2-0.2l-2-0.1l-2,0l-2,0.1l-1,0.5l-2,0.8l-2,1l-2,1L2,651l-2,0.6V578.4z"/>
<path class="st1" d="M0,651.6l2-0.6l2-0.7l2-1l2-1l2-0.8l1-0.5l2-0.1l2,0l2,0.1l2,0.2l2-0.2l2-0.6l2-0.6l2-0.2l2,0l1,0.1l2,0.2
	l2,0.2l2,0.2l2,0l2-0.1l2-0.1l2-0.1l2-0.2l2-0.5l1-0.7l2-0.9l2-1.1l2-1.4l2-1.6l2-1.7l2-1.6l2-1.5l2-1.6l2-1.6l1-1.6l2-1.6l2-1.5
	l2-1.5l2-1.4l2-1.9l2-1.6l2-0.6l2-0.6l2-0.4l1-0.3l2-0.3l2-0.2l2-0.2l2-0.1l2-0.1l2-0.1l2-0.1l2-0.1l1,0l2,0l2-0.1l2,0l2,0l2,0
	l2-0.1l2-0.1l2-0.2l2-0.3l2-0.3l1-0.4l2-0.4l2-0.5l2-0.5l2-0.6l2-0.6l2-0.6l2-0.6l2-0.6l2-0.6l1-0.6l2-0.5l2-0.4l2-0.4l2-0.3l2-0.2
	l2-0.2l2-0.1l2,0l2,0l1,0.1l2,0.1l2,0.1l2,0.1l2,0.1l2,0.1l2,0.1l2,0.1l2,0.1l2,0.1l1,0.1l2,0l2,0l2,0l2,0l2,0l2-0.1l2-0.1l2-0.1
	l2-0.1l1-0.1l2-0.1l2-0.1l2-0.1l2-0.1l2-0.1l2-0.1l2,0l2,0l2,0l1,0l2,0.1l2,0.1l2,0.1l2,0.1l2,0.1l2,0.1l2,0.2l2,0.1l2,0.1l1,0.1
	l2,0.1l2,0.1l2,0.1l2,0.1l2,0.1l2,0l2,0l2,0l2,0l1,0l2,0l2-0.1l2-0.1l2-0.1l2-0.1l2-0.1l2-0.1l2-0.1l2-0.1l1-0.1l2,0l2,0l2,0l2,0
	v139.5l-2,0l-2,0l-2,0l-2,0l-1,0l-2,0l-2,0l-2,0l-2,0l-2-0.1l-2-0.1l-2-0.1l-2-0.1l-2-0.1l-1-0.1l-2-0.1l-2-0.1l-2,0l-2,0.1l-2,0.1
	l-2,0.2l-2,0.2l-2,0.3l-2,0.3l-1,0.3l-2,0.4l-2,0.4l-2,0.3l-2,0.3l-2,0.2l-2,0.1l-2,0.1l-2,0l-2,0l-1,0l-2,0l-2,0l-2-0.1l-2-0.1
	l-2-0.1l-2-0.1l-2-0.1l-2,0l-2,0.1l-1,0.1l-2,0.1l-2,0.1l-2,0.2l-2,0.1l-2,0.2l-2,0.3l-2,0.3l-2,0.5l-2,0.5l-1,0.6l-2,0.7l-2,0.8
	l-2,1l-2,1.1l-2,1.3l-2,1.5l-2,1.6l-2,1.6l-2,1.7l-1,1.7l-2,1.7l-2,1.8l-2,1.8l-2,1.8l-2,1.8l-2,1.9l-2,1.8l-2,1.6l-2,1.5l-1,1.4
	l-2,1.3l-2,1.2l-2,1.1l-2,1l-2,0.8l-2,0.9l-2,0.8l-2,0.7l-2,0.7l-1,0.7l-2,0.9l-2,1l-2,0.9l-2,1l-2,0.6l-2,0.2l-2,0.3l-2,0.2l-2,0.4
	l-2,0.8l-1,0.9l-2,0.7l-2,0.7l-2,0.8l-2,0.8l-2,0.8l-2,0.8l-2,0.8l-2,0.8l-1,1l-2,1l-2,0.9l-2,1l-2,1l-2,1l-2,1l-2,1l-2,1l-2,1l-1,1
	l-2,0.5l-2-0.3l-2-0.5l-2-0.2l-2,0l-2,0.3l-2,0.7l-2,0.7l-2,0.6l-1,0.6l-2,0.6l-2,0.6l-2,0.6l-2,0.6l-2,0.7l-2,0.6l-2,0.5l-2,0.5
	l-2,0.5l-1,0.4l-2,0.4l-2,0.3l-2,0.3l-2,0.4l-2,0.4l-2,0.4l-2,0.5l-2,0.4l-2,0.3l-1,0.4l-2,0.5l-2,0.4l-2,0.4l-2,0.3l-2,0.3V651.6z"
	/>
<path class="st2" d="M0,831.1l2-0.3l2-0.3l2-0.4l2-0.4l2-0.5l1-0.4l2-0.3l2-0.4l2-0.5l2-0.4l2-0.4l2-0.4l2-0.3l2-0.3l2-0.4l1-0.4
	l2-0.5l2-0.5l2-0.5l2-0.6l2-0.7l2-0.6l2-0.6l2-0.6l2-0.6l1-0.6l2-0.6l2-0.7l2-0.7l2-0.3l2,0l2,0.2l2,0.5l2,0.3l2-0.5l1-1l2-1l2-1
	l2-1l2-1l2-1l2-1l2-1l2-0.9l2-1l1-1l2-0.8l2-0.8l2-0.8l2-0.8l2-0.8l2-0.8l2-0.7l2-0.7l1-0.9l2-0.8l2-0.4l2-0.2l2-0.3l2-0.2l2-0.6
	l2-1l2-0.9l2-1l2-0.9l1-0.7l2-0.7l2-0.7l2-0.8l2-0.9l2-0.8l2-1l2-1.1l2-1.2l2-1.3l1-1.4l2-1.5l2-1.6l2-1.8l2-1.9l2-1.8l2-1.8l2-1.8
	l2-1.8l2-1.7l1-1.7l2-1.7l2-1.6l2-1.6l2-1.5l2-1.3l2-1.1l2-1l2-0.8l2-0.7l1-0.6l2-0.5l2-0.5l2-0.3l2-0.3l2-0.2l2-0.1l2-0.2l2-0.1
	l2-0.1l1-0.1l2-0.1l2,0l2,0.1l2,0.1l2,0.1l2,0.1l2,0.1l2,0l2,0l1,0l2,0l2,0l2-0.1l2-0.1l2-0.2l2-0.3l2-0.3l2-0.4l2-0.4l1-0.3l2-0.3
	l2-0.3l2-0.2l2-0.2l2-0.1l2-0.1l2,0l2,0.1l2,0.1l1,0.1l2,0.1l2,0.1l2,0.1l2,0.1l2,0.1l2,0l2,0l2,0l2,0l1,0l2,0l2,0l2,0l2,0v105h-2
	h-2h-2h-2h-1h-2h-2h-2h-2h-2h-2h-2h-2h-2h-1h-2h-2h-2h-2h-2h-2h-2h-2h-2h-1h-2h-2h-2h-2h-2h-2h-2h-2h-2h-1h-2h-2h-2h-2h-2h-2h-2h-2
	h-2h-1h-2h-2h-2h-2h-2h-2h-2h-2h-2h-1h-2h-2h-2h-2h-2h-2h-2h-2h-2h-1h-2h-2h-2h-2h-2h-2h-2h-2h-2h-1h-2h-2h-2h-2h-2h-2h-2h-2h-2h-1
	h-2h-2h-2h-2h-2h-2h-2h-2h-2h-2h-1h-2h-2h-2h-2h-2h-2h-2h-2h-1h-2h-2h-2h-2h-2h-2h-2h-2h-2h-1h-2h-2h-2h-2h-2h-2h-2h-2h-2h-1h-2h-2
	h-2h-2h-2h-2h-2h-2h-2h-1h-2h-2h-2h-2h-2h-2h-2h-2h-2h-1H8H6H4H2H0V831.1z"/>
<path class="st0" d="M325,578.4h2h2h2h2h2h1h2h2h2h2h2h2h2h2h2h1h2h2h2h2h2h2h2h2h2h1h2h2h2h2h2h2h2h2h2h1h2h2h2h2h2h2h2h2h2h1h2h2
	h2h2h2h2h2h2h1h2h2h2h2h2h2h2h2h2h2h1h2h2h2h2h2h2h2h2h2h1h2h2h2h2h2h2h2h2h2h1h2h2h2h2h2h2h2h2h2h1h2h2h2h2h2h2h2h2h2h1h2h2h2h2h2
	h2h2h2h2h1h2h2h2h2h2h2h2h2h2h1h2h2h2h2h2h2h2h2h2h1h2h2h2h2h2h2h2h2h2h1h2h2h2h2v30.9l-2,0l-2,0l-2,0l-2,0l-1,0l-2,0l-2,0l-2,0
	l-2,0.1l-2,0l-2,0.1l-2,0.1l-2,0.1l-2,0l-1,0l-2,0l-2,0l-2,0l-2,0l-2,0l-2-0.1l-2-0.1l-2-0.1l-2-0.1l-1-0.1l-2-0.1l-2-0.1l-2-0.2
	l-2-0.2l-2-0.2l-2-0.1l-2-0.1l-2-0.1l-2-0.1l-1-0.1l-2,0l-2,0l-2,0l-2,0l-2,0.1l-2,0.1l-2,0.1l-2,0.1l-2,0.1l-1,0.1l-2,0.1l-2,0.1
	l-2,0.1l-2,0.1l-2,0.1l-2,0.1l-2,0l-2,0l-2,0l-1,0l-2-0.1l-2-0.1l-2-0.1l-2-0.1l-2-0.1l-2-0.1l-2-0.2l-2-0.2l-2-0.2l-1-0.1l-2-0.2
	l-2-0.1l-2,0l-2,0.1l-2,0.2l-2,0.2l-2,0.2l-2,0.3l-2,0.3l-1,0.3l-2,0.4l-2,0.4l-2,0.4l-2,0.4l-2,0.4l-2,0.4l-2,0.5l-2,0.4l-2,0.4
	l-1,0.4l-2,0.3l-2,0.3l-2,0.3l-2,0.3l-2,0.3l-2,0.3l-2,0.3l-2,0.2l-2,0.2l-2,0.3l-1,0.3l-2,0.4l-2,0.4l-2,0.4l-2,0.5l-2,0.6l-2,0.6
	l-2,0.7l-2,0.7l-1,0.8l-2,0.9l-2,1.1l-2,1.3l-2,1.4l-2,1.6l-2,1.8l-2,1.9l-2,1.9l-2,1.7l-1,1.6l-2,1.4l-2,1.3l-2,1.3l-2,0.8l-2,0.6
	l-2,0.9l-2,0.7l-2,0.4l-2,0.2l-1,0l-2-0.2l-2-0.3l-2-0.4l-2-0.3l-2,0l-2,0.2l-2,0.4l-2,0.6l-2,1.4l-1,1.9l-2,2.3l-2,3.1l-2,3.2
	l-2,2.2l-2,1.2l-2,1.4l-2,1.9l-2,2.2l-2,2.3l-1,2.1l-2,1.5l-2,1.2l-2,1.2l-2,1.3l-2,1.1V578.4z"/>
<path class="st1" d="M325,675.7l2-1.1l2-1.3l2-1.2l2-1.2l2-1.5l1-2.1l2-2.3l2-2.2l2-1.9l2-1.4l2-1.2l2-2.2l2-3.2l2-3.1l2-2.3l1-1.9
	l2-1.4l2-0.6l2-0.4l2-0.2l2,0l2,0.3l2,0.4l2,0.3l2,0.2l1,0l2-0.2l2-0.4l2-0.7l2-0.9l2-0.6l2-0.8l2-1.3l2-1.3l2-1.4l1-1.6l2-1.7
	l2-1.9l2-1.9l2-1.8l2-1.6l2-1.4l2-1.3l2-1.1l2-0.9l1-0.8l2-0.7l2-0.7l2-0.6l2-0.6l2-0.5l2-0.4l2-0.4l2-0.4l1-0.3l2-0.3l2-0.2l2-0.2
	l2-0.3l2-0.3l2-0.3l2-0.3l2-0.3l2-0.3l2-0.3l1-0.4l2-0.4l2-0.4l2-0.5l2-0.4l2-0.4l2-0.4l2-0.4l2-0.4l2-0.4l1-0.3l2-0.3l2-0.3l2-0.2
	l2-0.2l2-0.2l2-0.1l2,0l2,0.1l2,0.2l1,0.1l2,0.2l2,0.2l2,0.2l2,0.1l2,0.1l2,0.1l2,0.1l2,0.1l2,0.1l1,0l2,0l2,0l2,0l2-0.1l2-0.1
	l2-0.1l2-0.1l2-0.1l2-0.1l1-0.1l2-0.1l2-0.1l2-0.1l2-0.1l2-0.1l2,0l2,0l2,0l2,0l1,0.1l2,0.1l2,0.1l2,0.1l2,0.1l2,0.2l2,0.2l2,0.2
	l2,0.1l2,0.1l1,0.1l2,0.1l2,0.1l2,0.1l2,0.1l2,0l2,0l2,0l2,0l2,0l1,0l2,0l2-0.1l2-0.1l2-0.1l2,0l2-0.1l2,0l2,0l2,0l1,0l2,0l2,0l2,0
	l2,0v137.7l-2,0.1l-2,0.1l-2,0l-2,0l-1,0l-2,0l-2,0l-2,0l-2,0l-2-0.1l-2-0.1l-2-0.1l-2-0.1l-2-0.2l-1-0.2l-2-0.2l-2-0.2l-2-0.1l-2,0
	l-2,0.1l-2,0.1l-2,0.1l-2,0.1l-2,0.1l-1,0.1l-2,0.1l-2,0.1l-2,0.1l-2,0l-2,0l-2,0l-2,0l-2,0.1l-2,0.1l-1,0.2l-2,0.2l-2,0.1l-2,0.2
	l-2,0.2l-2,0.2l-2,0.2l-2,0.2l-2,0.1l-2,0.2l-1,0.1l-2,0.2l-2,0.3l-2,0.3l-2,0.3l-2,0.3l-2,0.4l-2,0.4l-2,0.4l-2,0.4l-1,0.5l-2,0.6
	l-2,0.7l-2,0.8l-2,0.9l-2,1.1l-2,1.3l-2,1.5l-2,1.4l-2,1.3l-1,1.1l-2,1l-2,1l-2,1l-2,0.5l-2,0.4l-2,0.7l-2,0.6l-2,0.5l-2,0.4l-1,0.4
	l-2,0.4l-2,0.4l-2,0.4l-2,0.4l-2,0.6l-2,0.8l-2,1l-2,1.2l-2,1.4l-1,1.7l-2,2.2l-2,2.6l-2,2.6l-2,1.8l-2,1l-2,1.2l-2,1.6l-2,1.8
	l-2,1.9l-2,1.8l-1,1.5l-2,1.4l-2,1.5l-2,1.7l-2,1.7l-2,1.6l-2,1.6l-2,1.6l-2,1.6l-1,1.5l-2,1.4l-2,1.4l-2,1.4l-2,1.4l-2,1.4l-2,1.3
	l-2,1.1l-2,1l-2,0.9l-1,0.9l-2,0.8l-2,0.6l-2,0.6l-2,0.7l-2,0.7l-2,0.7l-2,0.7l-2,0.7l-2,0.7l-1,0.6l-2,0.6l-2,0.5l-2,0.5l-2,0.4
	l-2,0.3l-2,0.3l-2,0.4l-2,0.5l-2,0.5l-1,0.5l-2,0.4l-2,0.4l-2,0.3l-2,0.3l-2,0.3l-2,0.3l-2,0.3l-2,0.2l-2,0.2l-1,0.2l-2,0.3l-2,0.3
	l-2,0.3l-2,0.2l-2,0.1V675.7z"/>
<path class="st0" d="M2,867.2h2h2h2h2h2h1h2h2h2h2h2h2h2h2h2h1h2h2h2h2h2h2h2h2h2h1h2h2h2h2h2h2h2h2h2h1h2h2h2h2h2h2h2h2h2h1h2h2h2
	h2h2h2h2h2h1h2h2h2h2h2h2h2h2h2h2h1h2h2h2h2h2h2h2h2h2h1h2h2h2h2h2h2h2h2h2h1h2h2h2h2h2h2h2h2h2h1h2h2h2h2h2h2h2h2h2h1h2h2h2h2h2h2
	h2h2h2h1h2h2h2h2h2h2h2h2h2h1h2h2h2h2h2h2h2h2h2h1h2h2h2h2h2h2h2h2h2h1h2h2h2h2v26.8l-2,0l-2,0l-2,0.1l-2,0.1l-1,0.2l-2,0.2l-2,0.2
	l-2,0.2l-2,0.2l-2,0.2l-2,0.2l-2,0.2l-2,0.1l-2,0.1l-1,0l-2,0l-2,0l-2-0.1l-2-0.1l-2-0.2l-2-0.2l-2-0.2l-2-0.2l-2-0.2l-1-0.3l-2-0.3
	l-2-0.2l-2-0.2l-2-0.2l-2-0.1l-2-0.1l-2,0l-2,0.1l-2,0.1l-1,0.2l-2,0.3l-2,0.3l-2,0.4l-2,0.4l-2,0.4l-2,0.5l-2,0.5l-2,0.4l-2,0.4
	l-1,0.3l-2,0.3l-2,0.2l-2,0.2l-2,0.1l-2,0l-2,0l-2-0.1l-2-0.1l-2-0.2l-1-0.2l-2-0.2l-2-0.2l-2-0.2l-2-0.1l-2-0.1l-2-0.1l-2,0l-2,0
	l-2,0l-1,0.2l-2,0.6l-2,0.9l-2,1.3l-2,1.5l-2,1.4l-2,1.5l-2,1.5l-2,1.6l-2,1.5l-1,1.4l-2,1.4l-2,1.4l-2,1.3l-2,1.2l-2,1l-2,0.6
	l-2,0.4l-2,0l-2-0.2l-1,0l-2,0l-2-0.1l-2-0.1l-2,0.1l-2,0.3l-2,0.4l-2,0.6l-2,0.8l-2,1.2l-2,1.9l-1,2.5l-2,2.4l-2,2.5l-2,2.5l-2,2.1
	l-2,1.8l-2,1.6l-2,1.7l-2,1.8l-1,1.4l-2,1.2l-2,0.9l-2,0.7l-2,0.6l-2,0.4l-2,0.4l-2,1l-2,1.3l-2,1.6l-1,2.3l-2,2.7l-2,3l-2,2.5
	l-2,2.2l-2,2.8l-2,3.1l-2,3.7l-2,3.5l-2,1.3l-1,0l-2-0.2l-2,0l-2,0.7l-2,0.7l-2,0.4l-2,0.4l-2,0.2l-2,0.6l-2,0.6l-1-0.2l-2-0.7
	l-2-1.6l-2-1.8l-2-0.1l-2,1l-2,0.4l-2-0.7l-2-1.9l-2-1.9l-1-1.8l-2-2.1l-2-2l-2-2l-2-1.8l-2-1.4V867.2z"/>
<path class="st1" d="M2,962.9l2,1.4l2,1.8l2,2l2,2l2,2.1l1,1.8l2,1.9l2,1.9l2,0.7l2-0.4l2-1l2,0.1l2,1.8l2,1.6l2,0.7l1,0.2l2-0.6
	l2-0.6l2-0.2l2-0.4l2-0.4l2-0.7l2-0.7l2,0l2,0.2l1,0l2-1.3l2-3.5l2-3.7l2-3.1l2-2.8l2-2.2l2-2.5l2-3l2-2.7l1-2.3l2-1.6l2-1.3l2-1
	l2-0.4l2-0.4l2-0.6l2-0.7l2-0.9l2-1.2l1-1.4l2-1.8l2-1.7l2-1.6l2-1.8l2-2.1l2-2.5l2-2.5l2-2.4l1-2.5l2-1.9l2-1.2l2-0.8l2-0.6l2-0.4
	l2-0.3l2-0.1l2,0.1l2,0.1l2,0l1,0l2,0.2l2,0l2-0.4l2-0.6l2-1l2-1.2l2-1.3l2-1.4l2-1.4l1-1.4l2-1.5l2-1.6l2-1.5l2-1.5l2-1.4l2-1.5
	l2-1.3l2-0.9l2-0.6l1-0.2l2,0l2,0l2,0l2,0.1l2,0.1l2,0.1l2,0.2l2,0.2l2,0.2l1,0.2l2,0.2l2,0.1l2,0.1l2,0l2,0l2-0.1l2-0.2l2-0.2
	l2-0.3l1-0.3l2-0.4l2-0.4l2-0.5l2-0.5l2-0.4l2-0.4l2-0.4l2-0.3l2-0.3l1-0.2l2-0.1l2-0.1l2,0l2,0.1l2,0.1l2,0.2l2,0.2l2,0.2l2,0.3
	l1,0.3l2,0.2l2,0.2l2,0.2l2,0.2l2,0.2l2,0.1l2,0.1l2,0l2,0l1,0l2-0.1l2-0.1l2-0.2l2-0.2l2-0.2l2-0.2l2-0.2l2-0.2l2-0.2l1-0.2l2-0.1
	l2-0.1l2,0l2,0v135.6l-2-0.1l-2-0.2l-2-0.2l-2-0.2l-1-0.2l-2-0.2l-2-0.2l-2-0.2l-2-0.2l-2-0.3l-2-0.3l-2-0.3l-2-0.3l-2-0.3l-1-0.2
	l-2,0.3l-2,0.7l-2,1.1l-2,1.4l-2,1.2l-2,1.2l-2,1.3l-2,1.3l-2,1.2l-1,1l-2,1l-2,0.9l-2,0.8l-2,0.6l-2,0.5l-2,0.4l-2,0.3l-2,0.3
	l-2,0.3l-1,0.4l-2,0.4l-2,0.3l-2,0.3l-2,0.4l-2,0.6l-2,0.7l-2,0.8l-2,0.9l-2,1.1l-1,1.8l-2,2.2l-2,2l-2,2l-2,2l-2,1.6l-2,1.3l-2,1.1
	l-2,1.3l-2,1.3l-1,1.1l-2,1l-2,0.8l-2,0.8l-2,0.9l-2,1.1l-2,1.4l-2,1.8l-2,2l-2,2.2l-1,2.4l-2,2.5l-2,2.5l-2,2.3l-2,2.1l-2,2.3
	l-2,2.4l-2,2.6l-2,2.4l-2,1.2l-1,0.6l-2,0.7l-2,1l-2,1.5l-2,1.6l-2,1.5l-2,1.6l-2,1.5l-2,1.5l-2,1.3l-1,1.2l-2,1.1l-2,0.9l-2,0.7
	l-2,0.6l-2,0.5l-2,0.5l-2,0.4l-2,0.4l-2,0.4l-2,0.5l-1,0.4l-2,0.5l-2,0.5l-2,0.5l-2,0.6l-2,0.5l-2,0.6l-2,0.5l-2,0.5l-1,0.5l-2,0.5
	l-2,0.4l-2,0.4l-2,0.3l-2,0.3l-2,0.3l-2,0.3l-2,0.2l-2,0.2l-1,0.3l-2,0.3l-2,0.2l-2,0.2l-2,0.2l-2,0.2l-2,0.3l-2,0.3l-2,0.2l-2,0.2
	l-1,0.2l-2,0.2l-2,0.2l-2,0.1l-2,0.1l-2,0.1l-2,0.1l-2,0.1l-2,0.1l-2,0l-1,0l-2-0.1l-2-0.2l-2-0.2l-2-0.2l-2-0.2l-2-0.3l-2-0.2
	l-2-0.2l-2-0.3l-1-0.3l-2-0.3l-2-0.3l-2-0.3l-2-0.4l-2-0.4V962.9z"/>
<path class="st2" d="M2,1128.4l2,0.4l2,0.4l2,0.3l2,0.3l2,0.3l1,0.3l2,0.3l2,0.2l2,0.2l2,0.3l2,0.2l2,0.2l2,0.2l2,0.2l2,0.1l1,0l2,0
	l2-0.1l2-0.1l2-0.1l2-0.1l2-0.1l2-0.1l2-0.2l2-0.2l1-0.2l2-0.2l2-0.2l2-0.3l2-0.3l2-0.2l2-0.2l2-0.2l2-0.2l2-0.3l1-0.3l2-0.2l2-0.2
	l2-0.3l2-0.3l2-0.3l2-0.3l2-0.4l2-0.4l2-0.5l1-0.5l2-0.5l2-0.5l2-0.6l2-0.5l2-0.6l2-0.5l2-0.5l2-0.5l1-0.4l2-0.5l2-0.4l2-0.4l2-0.4
	l2-0.5l2-0.5l2-0.6l2-0.7l2-0.9l2-1.1l1-1.2l2-1.3l2-1.5l2-1.5l2-1.6l2-1.5l2-1.6l2-1.5l2-1l2-0.7l1-0.6l2-1.2l2-2.4l2-2.6l2-2.4
	l2-2.3l2-2.1l2-2.3l2-2.5l2-2.5l1-2.4l2-2.2l2-2l2-1.8l2-1.4l2-1.1l2-0.9l2-0.8l2-0.8l2-1l1-1.1l2-1.3l2-1.3l2-1.1l2-1.3l2-1.6l2-2
	l2-2l2-2l2-2.2l1-1.8l2-1.1l2-0.9l2-0.8l2-0.7l2-0.6l2-0.4l2-0.3l2-0.3l2-0.4l1-0.4l2-0.3l2-0.3l2-0.3l2-0.4l2-0.5l2-0.6l2-0.8
	l2-0.9l2-1l1-1l2-1.2l2-1.3l2-1.3l2-1.2l2-1.2l2-1.4l2-1.1l2-0.7l2-0.3l1,0.2l2,0.3l2,0.3l2,0.3l2,0.3l2,0.3l2,0.2l2,0.2l2,0.2
	l2,0.2l1,0.2l2,0.2l2,0.2l2,0.2l2,0.1v112.6h-2h-2h-2h-2h-1h-2h-2h-2h-2h-2h-2h-2h-2h-2h-1h-2h-2h-2h-2h-2h-2h-2h-2h-2h-1h-2h-2h-2
	h-2h-2h-2h-2h-2h-2h-1h-2h-2h-2h-2h-2h-2h-2h-2h-2h-1h-2h-2h-2h-2h-2h-2h-2h-2h-2h-1h-2h-2h-2h-2h-2h-2h-2h-2h-2h-1h-2h-2h-2h-2h-2
	h-2h-2h-2h-2h-1h-2h-2h-2h-2h-2h-2h-2h-2h-2h-1h-2h-2h-2h-2h-2h-2h-2h-2h-2h-2h-1h-2h-2h-2h-2h-2h-2h-2h-2h-1h-2h-2h-2h-2h-2h-2h-2
	h-2h-2h-1h-2h-2h-2h-2h-2h-2h-2h-2h-2h-1h-2h-2h-2h-2h-2h-2h-2h-2h-2h-1h-2h-2h-2h-2h-2h-2h-2h-2h-2h-1h-2H8H6H4H2V1128.4z"/>
<path class="st0" d="M327,867.2h2h2h2h2h2h1h2h2h2h2h2h2h2h2h2h1h2h2h2h2h2h2h2h2h2h1h2h2h2h2h2h2h2h2h2h1h2h2h2h2h2h2h2h2h2h1h2h2
	h2h2h2h2h2h2h1h2h2h2h2h2h2h2h2h2h2h1h2h2h2h2h2h2h2h2h2h1h2h2h2h2h2h2h2h2h2h1h2h2h2h2h2h2h2h2h2h1h2h2h2h2h2h2h2h2h2h1h2h2h2h2h2
	h2h2h2h2h1h2h2h2h2h2h2h2h2h2h1h2h2h2h2h2h2h2h2h2h1h2h2h2h2h2h2h2h2h2h1h2h2h2h2v25.4l-2-0.1l-2-0.1l-2-0.1l-2-0.1l-1-0.1l-2-0.1
	l-2-0.1l-2,0l-2-0.1l-2,0l-2-0.1l-2-0.1l-2-0.1l-2-0.1l-1-0.1l-2-0.1l-2-0.1l-2-0.1l-2-0.1l-2-0.1l-2-0.1l-2-0.1l-2-0.1l-2-0.2
	l-1-0.2l-2-0.2l-2-0.2l-2-0.2l-2-0.2l-2-0.2l-2-0.2l-2-0.2l-2-0.2l-2-0.1l-1-0.1l-2-0.1l-2,0l-2,0l-2,0.1l-2,0.1l-2,0.1l-2,0.1
	l-2,0.1l-2,0.1l-1,0.1l-2,0.1l-2,0.1l-2,0.1l-2,0.1l-2,0.1l-2,0.1l-2,0.1l-2,0.1l-2,0.1l-1,0.2l-2,0.1l-2,0.2l-2,0.1l-2,0.1l-2,0.1
	l-2,0.1l-2,0l-2,0l-2,0l-1,0l-2,0l-2,0.1l-2,0.2l-2,0.4l-2,0.6l-2,0.6l-2,0.7l-2,0.8l-2,0.9l-1,0.8l-2,0.8l-2,0.8l-2,0.9l-2,0.9
	l-2,0.8l-2,0.8l-2,0.8l-2,0.8l-2,0.9l-1,1.1l-2,1.2l-2,1.3l-2,1.4l-2,1.6l-2,1.7l-2,1.5l-2,1.6l-2,1.7l-2,1.6l-2,1.5l-1,1.3l-2,1.1
	l-2,0.9l-2,0.8l-2,0.6l-2,0.6l-2,0.9l-2,1.2l-2,1.5l-1,1.7l-2,1.6l-2,1.4l-2,1.3l-2,1.5l-2,1.7l-2,2l-2,2.3l-2,2.5l-2,2.7l-1,2.8
	l-2,2.6l-2,2.3l-2,1.8l-2,1.8l-2,1.9l-2,2l-2,2.3l-2,2.6l-2,2.8l-1,2.8l-2,2.5l-2,2.3l-2,1.9l-2,1.6l-2,1.7l-2,1.5l-2,1l-2,0.8
	l-2,0.3l-1-0.3l-2-0.7l-2-0.9l-2-1.1l-2-1l-2-0.9l-2-1l-2-0.8l-2-0.3l-2,0.2l-1,0.6l-2,0.9l-2,1.2l-2,1.4l-2,0.8l-2-0.2V867.2z"/>
<path class="st1" d="M327,985.3l2,0.2l2-0.8l2-1.4l2-1.2l2-0.9l1-0.6l2-0.2l2,0.3l2,0.8l2,1l2,0.9l2,1l2,1.1l2,0.9l2,0.7l1,0.3
	l2-0.3l2-0.8l2-1l2-1.5l2-1.7l2-1.6l2-1.9l2-2.3l2-2.5l1-2.8l2-2.8l2-2.6l2-2.3l2-2l2-1.9l2-1.8l2-1.8l2-2.3l2-2.6l1-2.8l2-2.7
	l2-2.5l2-2.3l2-2l2-1.7l2-1.5l2-1.3l2-1.4l2-1.6l1-1.7l2-1.5l2-1.2l2-0.9l2-0.6l2-0.6l2-0.8l2-0.9l2-1.1l1-1.3l2-1.5l2-1.6l2-1.7
	l2-1.6l2-1.5l2-1.7l2-1.6l2-1.4l2-1.3l2-1.2l1-1.1l2-0.9l2-0.8l2-0.8l2-0.8l2-0.8l2-0.9l2-0.9l2-0.8l2-0.8l1-0.8l2-0.9l2-0.8l2-0.7
	l2-0.6l2-0.6l2-0.4l2-0.2l2-0.1l2,0l1,0l2,0l2,0l2,0l2-0.1l2-0.1l2-0.1l2-0.1l2-0.2l2-0.1l1-0.2l2-0.1l2-0.1l2-0.1l2-0.1l2-0.1
	l2-0.1l2-0.1l2-0.1l2-0.1l1-0.1l2-0.1l2-0.1l2-0.1l2-0.1l2-0.1l2-0.1l2,0l2,0l2,0.1l1,0.1l2,0.1l2,0.2l2,0.2l2,0.2l2,0.2l2,0.2
	l2,0.2l2,0.2l2,0.2l1,0.2l2,0.2l2,0.1l2,0.1l2,0.1l2,0.1l2,0.1l2,0.1l2,0.1l2,0.1l1,0.1l2,0.1l2,0.1l2,0.1l2,0.1l2,0l2,0.1l2,0
	l2,0.1l2,0.1l1,0.1l2,0.1l2,0.1l2,0.1l2,0.1V1020l-2-0.3l-2-0.3l-2-0.3l-2-0.2l-1-0.3l-2-0.3l-2-0.3l-2-0.4l-2-0.5l-2-0.6l-2-0.6
	l-2-0.7l-2-0.7l-2-0.8l-1-0.7l-2-0.6l-2-0.5l-2-0.3l-2,0l-2,0.2l-2,0.3l-2,0.3l-2,0.4l-2,0.5l-1,0.4l-2,0.2l-2,0.2l-2,0.3l-2,0.1
	l-2,0l-2,0l-2,0.1l-2,0.2l-2,0.5l-1,0.9l-2,1.1l-2,1.1l-2,1.3l-2,1.4l-2,1.5l-2,1.5l-2,1.5l-2,1.5l-2,1.4l-1,1.2l-2,1l-2,0.9l-2,0.9
	l-2,0.9l-2,0.9l-2,1l-2,1.3l-2,1.7l-2,1.8l-1,2l-2,1.9l-2,1.7l-2,1.5l-2,1.6l-2,1.6l-2,1.9l-2,2.2l-2,2.3l-2,2.5l-1,2.5l-2,2.6
	l-2,2.6l-2,2.4l-2,2.3l-2,2.3l-2,2.3l-2,2.3l-2,2.5l-2,2.8l-1,3l-2,2.9l-2,2.6l-2,2.4l-2,2.3l-2,2.3l-2,2.1l-2,1.7l-2,1.6l-2,1.4
	l-1,1.1l-2,1.1l-2,1.2l-2,1.1l-2,0.9l-2,1l-2,1l-2,1l-2,1.1l-2,1.2l-2,1.2l-1,1.1l-2,1.1l-2,1.1l-2,1.1l-2,1l-2,0.9l-2,0.8l-2,0.7
	l-2,0.7l-1,0.6l-2,0.5l-2,0.5l-2,0.5l-2,0.5l-2,0.4l-2,0.4l-2,0.4l-2,0.3l-2,0.4l-1,0.4l-2,0.2l-2,0.2l-2,0.2l-2,0.3l-2,0.3l-2,0.1
	l-2,0.1l-2,0.1l-2,0.1l-1,0l-2,0l-2,0.1l-2,0.1l-2,0.1l-2,0.2l-2,0.1l-2,0.1l-2,0.1l-2,0.2l-1,0.1l-2-0.1l-2,0l-2,0l-2,0l-2,0.1
	l-2,0.1l-2,0.2l-2,0.2l-2,0.1l-1,0.2l-2,0.3l-2,0.2l-2,0.2l-2,0.1l-2-0.1V985.3z"/>
<path class="st2" d="M327,1134.7l2,0.1l2-0.1l2-0.2l2-0.2l2-0.3l1-0.2l2-0.1l2-0.2l2-0.2l2-0.1l2-0.1l2,0l2,0l2,0l2,0.1l1-0.1l2-0.2
	l2-0.1l2-0.1l2-0.1l2-0.2l2-0.1l2-0.1l2-0.1l2,0l1,0l2-0.1l2-0.1l2-0.1l2-0.1l2-0.3l2-0.3l2-0.2l2-0.2l2-0.2l1-0.4l2-0.4l2-0.3
	l2-0.4l2-0.4l2-0.4l2-0.5l2-0.5l2-0.5l2-0.5l1-0.6l2-0.7l2-0.7l2-0.8l2-0.9l2-1l2-1.1l2-1.1l2-1.1l1-1.1l2-1.2l2-1.2l2-1.1l2-1l2-1
	l2-1l2-0.9l2-1.1l2-1.2l2-1.1l1-1.1l2-1.4l2-1.6l2-1.7l2-2.1l2-2.3l2-2.3l2-2.4l2-2.6l2-2.9l1-3l2-2.8l2-2.5l2-2.3l2-2.3l2-2.3
	l2-2.3l2-2.4l2-2.6l2-2.6l1-2.5l2-2.5l2-2.3l2-2.2l2-1.9l2-1.6l2-1.6l2-1.5l2-1.7l2-1.9l1-2l2-1.8l2-1.7l2-1.3l2-1l2-0.9l2-0.9
	l2-0.9l2-0.9l2-1l1-1.2l2-1.4l2-1.5l2-1.5l2-1.5l2-1.5l2-1.4l2-1.3l2-1.1l2-1.1l1-0.9l2-0.5l2-0.2l2-0.1l2,0l2,0l2-0.1l2-0.3l2-0.2
	l2-0.2l1-0.4l2-0.5l2-0.4l2-0.3l2-0.3l2-0.2l2,0l2,0.3l2,0.5l2,0.6l1,0.7l2,0.8l2,0.7l2,0.7l2,0.6l2,0.6l2,0.5l2,0.4l2,0.3l2,0.3
	l1,0.3l2,0.2l2,0.3l2,0.3l2,0.3v122.2h-2h-2h-2h-2h-1h-2h-2h-2h-2h-2h-2h-2h-2h-2h-1h-2h-2h-2h-2h-2h-2h-2h-2h-2h-1h-2h-2h-2h-2h-2
	h-2h-2h-2h-2h-1h-2h-2h-2h-2h-2h-2h-2h-2h-2h-1h-2h-2h-2h-2h-2h-2h-2h-2h-2h-1h-2h-2h-2h-2h-2h-2h-2h-2h-2h-1h-2h-2h-2h-2h-2h-2h-2
	h-2h-2h-1h-2h-2h-2h-2h-2h-2h-2h-2h-2h-1h-2h-2h-2h-2h-2h-2h-2h-2h-2h-2h-1h-2h-2h-2h-2h-2h-2h-2h-2h-1h-2h-2h-2h-2h-2h-2h-2h-2h-2
	h-1h-2h-2h-2h-2h-2h-2h-2h-2h-2h-1h-2h-2h-2h-2h-2h-2h-2h-2h-2h-1h-2h-2h-2h-2h-2h-2h-2h-2h-2h-1h-2h-2h-2h-2h-2V1134.7z"/>
<path class="st2" d="M325,839.9l2-0.1l2-0.2l2-0.3l2-0.3l2-0.3l1-0.2l2-0.2l2-0.2l2-0.3l2-0.3l2-0.3l2-0.3l2-0.3l2-0.4l2-0.4l1-0.5
	l2-0.5l2-0.5l2-0.4l2-0.3l2-0.3l2-0.4l2-0.5l2-0.5l2-0.6l1-0.6l2-0.7l2-0.7l2-0.7l2-0.7l2-0.7l2-0.7l2-0.6l2-0.6l2-0.8l1-0.9l2-0.9
	l2-1l2-1.1l2-1.3l2-1.4l2-1.4l2-1.4l2-1.4l2-1.4l1-1.5l2-1.6l2-1.6l2-1.6l2-1.6l2-1.7l2-1.7l2-1.5l2-1.4l1-1.5l2-1.8l2-1.9l2-1.8
	l2-1.6l2-1.2l2-1l2-1.8l2-2.6l2-2.6l2-2.2l1-1.7l2-1.4l2-1.2l2-1l2-0.8l2-0.6l2-0.4l2-0.4l2-0.4l2-0.4l1-0.4l2-0.4l2-0.5l2-0.6
	l2-0.7l2-0.4l2-0.5l2-1l2-1l2-1l1-1.1l2-1.3l2-1.4l2-1.5l2-1.3l2-1.1l2-0.9l2-0.8l2-0.7l2-0.6l1-0.5l2-0.4l2-0.4l2-0.4l2-0.4l2-0.3
	l2-0.3l2-0.3l2-0.3l2-0.2l1-0.1l2-0.2l2-0.1l2-0.2l2-0.2l2-0.2l2-0.2l2-0.2l2-0.1l2-0.2l1-0.2l2-0.1l2-0.1l2,0l2,0l2,0l2,0l2-0.1
	l2-0.1l2-0.1l1-0.1l2-0.1l2-0.1l2-0.1l2-0.1l2-0.1l2,0l2,0.1l2,0.2l2,0.2l1,0.2l2,0.2l2,0.1l2,0.1l2,0.1l2,0.1l2,0l2,0l2,0l2,0l1,0
	l2,0l2,0l2-0.1l2-0.1v106.4h-2h-2h-2h-2h-1h-2h-2h-2h-2h-2h-2h-2h-2h-2h-1h-2h-2h-2h-2h-2h-2h-2h-2h-2h-1h-2h-2h-2h-2h-2h-2h-2h-2
	h-2h-1h-2h-2h-2h-2h-2h-2h-2h-2h-2h-1h-2h-2h-2h-2h-2h-2h-2h-2h-2h-1h-2h-2h-2h-2h-2h-2h-2h-2h-2h-1h-2h-2h-2h-2h-2h-2h-2h-2h-2h-1
	h-2h-2h-2h-2h-2h-2h-2h-2h-2h-1h-2h-2h-2h-2h-2h-2h-2h-2h-2h-2h-1h-2h-2h-2h-2h-2h-2h-2h-2h-1h-2h-2h-2h-2h-2h-2h-2h-2h-2h-1h-2h-2
	h-2h-2h-2h-2h-2h-2h-2h-1h-2h-2h-2h-2h-2h-2h-2h-2h-2h-1h-2h-2h-2h-2h-2h-2h-2h-2h-2h-1h-2h-2h-2h-2h-2V839.9z"/>
<path class="st0" d="M0,0h2h2h2h2h2h1h2h2h2h2h2h2h2h2h2h1h2h2h2h2h2h2h2h2h2h1h2h2h2h2h2h2h2h2h2h1h2h2h2h2h2h2h2h2h2h1h2h2h2h2h2
	h2h2h2h1h2h2h2h2h2h2h2h2h2h2h1h2h2h2h2h2h2h2h2h2h1h2h2h2h2h2h2h2h2h2h1h2h2h2h2h2h2h2h2h2h1h2h2h2h2h2h2h2h2h2h1h2h2h2h2h2h2h2h2
	h2h1h2h2h2h2h2h2h2h2h2h1h2h2h2h2h2h2h2h2h2h1h2h2h2h2h2h2h2h2h2h1h2h2h2h2v57l-2,0.3l-2,0.3l-2,0.4l-2,0.4l-1,0.4l-2,0.4l-2,0.4
	l-2,0.4l-2,0.4l-2,0.4l-2,0.5l-2,0.5l-2,0.5l-2,0.5l-1,0.5l-2,0.5l-2,0.5l-2,0.6l-2,0.6l-2,0.6l-2,0.6l-2,0.7l-2,0.7l-2,0.7l-1,0.7
	l-2,0.7l-2,0.7l-2,0.7l-2,0.7l-2,0.7l-2,0.7l-2,0.7l-2,0.8l-2,0.8l-1,0.8l-2,0.8l-2,0.8l-2,0.9l-2,0.9l-2,0.9l-2,1l-2,1l-2,1l-2,1
	l-1,1l-2,1.1l-2,1.1l-2,1.1l-2,1.1l-2,1.1l-2,1.1l-2,1.1l-2,1.1l-2,1.1l-1,1.1l-2,1.1l-2,1.1l-2,1.1l-2,1.1l-2,1l-2,1l-2,1l-2,1
	l-2,1l-1,1l-2,0.9l-2,0.9l-2,0.9l-2,0.8l-2,0.8l-2,0.8l-2,0.8l-2,0.9l-2,0.9l-1,0.9l-2,0.8l-2,0.8l-2,0.8l-2,0.7l-2,0.6l-2,0.6
	l-2,0.5l-2,0.5l-2,0.4l-1,0.3l-2,0.2l-2,0l-2,0l-2-0.1l-2-0.1l-2-0.2l-2-0.3l-2-0.3l-2-0.3l-2-0.3l-1-0.3l-2-0.3l-2-0.3l-2-0.2l-2,0
	l-2,0.1l-2,0.3l-2,0.4l-2,0.4l-1,0.4l-2,0.4l-2,0.5l-2,0.5l-2,0.4l-2,0.4l-2,0.3l-2,0.2l-2,0.1l-2-0.1l-1-0.2l-2-0.3l-2-0.5l-2-0.6
	l-2-0.6l-2-0.5l-2-0.5l-2-0.6l-2-0.5l-2-0.5l-1-0.6l-2-0.6l-2-0.5l-2-0.5l-2-0.5l-2-0.4l-2-0.4l-2-0.4l-2-0.4l-2-0.4l-1-0.4l-2-0.5
	l-2-0.5l-2-0.2l-2,0l-2,0.1l-2,0.1l-2,0.1l-2,0l-2,0.1l-1,0.1l-2,0.2l-2,0.2l-2,0.2l-2,0.3l-2,0.3V0z"/>
<path class="st1" d="M0,114.3l2-0.3l2-0.3l2-0.2l2-0.2l2-0.2l1-0.1l2-0.1l2,0l2-0.1l2-0.1l2-0.1l2,0l2,0.2l2,0.5l2,0.5l1,0.4l2,0.4
	l2,0.4l2,0.4l2,0.4l2,0.4l2,0.5l2,0.5l2,0.5l2,0.6l1,0.6l2,0.5l2,0.5l2,0.6l2,0.5l2,0.5l2,0.6l2,0.6l2,0.5l2,0.3l1,0.2l2,0.1l2-0.1
	l2-0.2l2-0.3l2-0.4l2-0.4l2-0.5l2-0.5l2-0.4l1-0.4l2-0.4l2-0.4l2-0.3l2-0.1l2,0l2,0.2l2,0.3l2,0.3l1,0.3l2,0.3l2,0.3l2,0.3l2,0.3
	l2,0.2l2,0.1l2,0.1l2,0l2,0l2-0.2l1-0.3l2-0.4l2-0.5l2-0.5l2-0.6l2-0.6l2-0.7l2-0.8l2-0.8l2-0.8l1-0.9l2-0.9l2-0.9l2-0.8l2-0.8
	l2-0.8l2-0.8l2-0.9l2-0.9l2-0.9l1-1l2-1l2-1l2-1l2-1l2-1l2-1.1l2-1.1l2-1.1l2-1.1l1-1.1l2-1.1l2-1.1l2-1.1l2-1.1l2-1.1l2-1.1l2-1.1
	l2-1.1l2-1.1l1-1l2-1l2-1l2-1l2-1l2-0.9l2-0.9l2-0.9l2-0.8l2-0.8l1-0.8l2-0.8l2-0.8l2-0.7l2-0.7l2-0.7l2-0.7l2-0.7l2-0.7l2-0.7
	l1-0.7l2-0.7l2-0.7l2-0.7l2-0.6l2-0.6l2-0.6l2-0.6l2-0.5l2-0.5l1-0.5l2-0.5l2-0.5l2-0.5l2-0.5l2-0.4l2-0.4l2-0.4l2-0.4l2-0.4l1-0.4
	l2-0.4l2-0.4l2-0.3l2-0.3v184.1l-2,0.5l-2,0.6l-2,0.6l-2,0.6l-1,0.6l-2,0.6l-2,0.6l-2,0.6l-2,0.6l-2,0.6l-2,0.6l-2,0.6l-2,0.6
	l-2,0.6l-1,0.6l-2,0.6l-2,0.6l-2,0.5l-2,0.5l-2,0.5l-2,0.5l-2,0.5l-2,0.6l-2,0.6l-1,0.6l-2,0.5l-2,0.5l-2,0.5l-2,0.5l-2,0.5l-2,0.5
	l-2,0.4l-2,0.4l-2,0.4l-1,0.4l-2,0.3l-2,0.3l-2,0.3l-2,0.3l-2,0.3l-2,0.2l-2,0.2l-2,0.2l-2,0.2l-1,0.2l-2,0.2l-2,0.2l-2,0.2l-2,0.2
	l-2,0.2l-2,0.2l-2,0.2l-2,0.2l-2,0.2l-1,0.2l-2,0.2l-2,0.2l-2,0.2l-2,0.2l-2,0.2l-2,0.2l-2,0.2l-2,0.1l-2,0.1l-1,0.1l-2,0.1l-2,0.1
	l-2,0.1l-2,0.1l-2,0.1l-2,0.1l-2,0.1l-2,0.1l-2,0.1l-1,0l-2,0l-2,0l-2,0l-2,0l-2-0.1l-2,0l-2,0l-2,0l-2,0l-1,0l-2,0l-2-0.1l-2,0
	l-2,0l-2,0l-2,0l-2,0l-2,0l-2,0l-2,0l-1,0l-2,0l-2,0l-2,0l-2,0l-2,0l-2,0l-2,0l-2,0l-1,0l-2,0l-2,0l-2,0l-2,0l-2,0l-2,0l-2,0l-2,0
	l-2,0l-1,0l-2,0l-2,0l-2,0l-2,0l-2,0l-2,0l-2,0l-2,0l-2,0l-1,0l-2,0l-2,0l-2,0l-2,0l-2,0l-2,0l-2-0.1l-2-0.1l-2-0.1l-1,0l-2,0l-2,0
	l-2,0l-2,0l-2,0.1l-2,0.1l-2,0.1l-2,0.1l-2,0.1l-1,0.1l-2,0.1l-2,0.1l-2,0.1l-2,0.1l-2,0.1V114.3z"/>
<path class="st2" d="M0,266.7l2-0.1l2-0.1l2-0.1l2-0.1l2-0.1l1-0.1l2-0.1l2-0.1l2-0.1l2-0.1l2-0.1l2,0l2,0l2,0l2,0l1,0l2,0.1l2,0.1
	l2,0.1l2,0l2,0l2,0l2,0l2,0l2,0l1,0l2,0l2,0l2,0l2,0l2,0l2,0l2,0l2,0l2,0l1,0l2,0l2,0l2,0l2,0l2,0l2,0l2,0l2,0l2,0l1,0l2,0l2,0l2,0
	l2,0l2,0l2,0l2,0l2,0l1,0l2,0l2,0l2,0l2,0l2,0l2,0l2,0l2,0l2,0.1l2,0l1,0l2,0l2,0l2,0l2,0l2,0.1l2,0l2,0l2,0l2,0l1,0l2-0.1l2-0.1
	l2-0.1l2-0.1l2-0.1l2-0.1l2-0.1l2-0.1l2-0.1l1-0.1l2-0.1l2-0.1l2-0.2l2-0.2l2-0.2l2-0.2l2-0.2l2-0.2l2-0.2l1-0.2l2-0.2l2-0.2l2-0.2
	l2-0.2l2-0.2l2-0.2l2-0.2l2-0.2l2-0.2l1-0.2l2-0.2l2-0.2l2-0.2l2-0.2l2-0.3l2-0.3l2-0.3l2-0.3l2-0.3l1-0.4l2-0.4l2-0.4l2-0.4l2-0.5
	l2-0.5l2-0.5l2-0.5l2-0.5l2-0.5l1-0.6l2-0.6l2-0.6l2-0.5l2-0.5l2-0.5l2-0.5l2-0.5l2-0.6l2-0.6l1-0.6l2-0.6l2-0.6l2-0.6l2-0.6l2-0.6
	l2-0.6l2-0.6l2-0.6l2-0.6l1-0.6l2-0.6l2-0.6l2-0.6l2-0.5V275h-2h-2h-2h-2h-1h-2h-2h-2h-2h-2h-2h-2h-2h-2h-1h-2h-2h-2h-2h-2h-2h-2h-2
	h-2h-1h-2h-2h-2h-2h-2h-2h-2h-2h-2h-1h-2h-2h-2h-2h-2h-2h-2h-2h-2h-1h-2h-2h-2h-2h-2h-2h-2h-2h-2h-1h-2h-2h-2h-2h-2h-2h-2h-2h-2h-1
	h-2h-2h-2h-2h-2h-2h-2h-2h-2h-1h-2h-2h-2h-2h-2h-2h-2h-2h-2h-1h-2h-2h-2h-2h-2h-2h-2h-2h-2h-2h-1h-2h-2h-2h-2h-2h-2h-2h-2h-1h-2h-2
	h-2h-2h-2h-2h-2h-2h-2h-1h-2h-2h-2h-2h-2h-2h-2h-2h-2h-1h-2h-2h-2h-2h-2h-2h-2h-2h-2h-1h-2h-2h-2h-2h-2h-2h-2h-2h-2h-1H8H6H4H2H0
	V266.7z"/>
<text transform="matrix(1 0 0 1 9 20)" class="st3 st4 st5">Nigeria</text>
<text transform="matrix(1 0 0 1 239 241.175)" class="st6 st4 st7">12.3%</text>
<text transform="matrix(1 0 0 1 93 266.75)" class="st6 st4 st7">3%</text>
<text transform="matrix(1 0 0 1 334 20)" class="st3 st4 st5">India</text>
<text transform="matrix(1 0 0 1 564 193.05)" class="st6 st4 st7">29.8%</text>
<text transform="matrix(1 0 0 1 418 255.475)" class="st6 st4 st7">7.1%</text>
<text transform="matrix(1 0 0 1 9 598.3709)" class="st3 st4 st5">Italy</text>
<text transform="matrix(1 0 0 1 239 748.3209)" class="st6 st4 st7">38.2%</text>
<text transform="matrix(1 0 0 1 93 785.9959)" class="st6 st4 st7">24.5%</text>
<text transform="matrix(1 0 0 1 334 598.3709)" class="st3 st4 st5">Japan</text>
<text transform="matrix(1 0 0 1 564 746.9459)" class="st6 st4 st7">38.7%</text>
<text transform="matrix(1 0 0 1 11 887.2314)" class="st3 st4 st5">China</text>
<text transform="matrix(1 0 0 1 241 1029.7565)" class="st6 st4 st7">40.9%</text>
<text transform="matrix(1 0 0 1 95 1102.9065)" class="st6 st4 st7">14.3%</text>
<text transform="matrix(1 0 0 1 336 887.2314)" class="st3 st4 st5">Korea</text>
<text transform="matrix(1 0 0 1 566 1020.1315)" class="st6 st4 st7">44.4%</text>
<text transform="matrix(1 0 0 1 420 1091.6315)" class="st6 st4 st7">18.4%</text>
<text transform="matrix(1 0 0 1 418 770.5959)" class="st6 st4 st7">30.1%</text>
<text transform="matrix(1 0 0 1 9 20)" class="st3 st4 st5">Nigeria</text>
<text transform="matrix(1 0 0 1 239 241.175)" class="st6 st4 st7">12.3%</text>
<text transform="matrix(1 0 0 1 93 266.75)" class="st6 st4 st7">3%</text>
<text transform="matrix(1 0 0 1 334 20)" class="st3 st4 st5">India</text>
<text transform="matrix(1 0 0 1 564 193.05)" class="st6 st4 st7">29.8%</text>
<text transform="matrix(1 0 0 1 418 255.475)" class="st6 st4 st7">7.1%</text>
<text transform="matrix(1 0 0 1 9 598.3709)" class="st3 st4 st5">Italy</text>
<text transform="matrix(1 0 0 1 239 748.3209)" class="st6 st4 st7">38.2%</text>
<text transform="matrix(1 0 0 1 93 785.9959)" class="st6 st4 st7">24.5%</text>
<text transform="matrix(1 0 0 1 334 598.3709)" class="st3 st4 st5">Japan</text>
<text transform="matrix(1 0 0 1 564 746.9459)" class="st6 st4 st7">38.7%</text>
<text transform="matrix(1 0 0 1 11 887.2314)" class="st3 st4 st5">China</text>
<text transform="matrix(1 0 0 1 241 1029.7565)" class="st6 st4 st7">40.9%</text>
<text transform="matrix(1 0 0 1 95 1102.9065)" class="st6 st4 st7">14.3%</text>
<text transform="matrix(1 0 0 1 336 887.2314)" class="st3 st4 st5">Korea</text>
<text transform="matrix(1 0 0 1 566 1020.1315)" class="st6 st4 st7">44.4%</text>
<text transform="matrix(1 0 0 1 420 1091.6315)" class="st6 st4 st7">18.4%</text>
<text transform="matrix(1 0 0 1 418 770.5959)" class="st6 st4 st7">30.1%</text>
<text transform="matrix(1 0 0 1 9 20)" class="st8 st4 st5">Nigeria</text>
<text transform="matrix(1 0 0 1 239 241.175)" class="st9 st4 st7">12.3%</text>
<text transform="matrix(1 0 0 1 93 266.75)" class="st9 st4 st7">3%</text>
<text transform="matrix(1 0 0 1 334 20)" class="st8 st4 st5">India</text>
<text transform="matrix(1 0 0 1 564 193.05)" class="st9 st4 st7">29.8%</text>
<text transform="matrix(1 0 0 1 418 255.475)" class="st9 st4 st7">7.1%</text>
<text transform="matrix(1 0 0 1 9 598.3709)" class="st8 st4 st5">Italy</text>
<text transform="matrix(1 0 0 1 239 748.3209)" class="st9 st4 st7">38.2%</text>
<text transform="matrix(1 0 0 1 93 785.9959)" class="st9 st4 st7">24.5%</text>
<text transform="matrix(1 0 0 1 334 598.3709)" class="st8 st4 st5">Japan</text>
<text transform="matrix(1 0 0 1 564 746.9459)" class="st9 st4 st7">38.7%</text>
<text transform="matrix(1 0 0 1 11 887.2314)" class="st8 st4 st5">China</text>
<text transform="matrix(1 0 0 1 241 1029.7565)" class="st9 st4 st7">40.9%</text>
<text transform="matrix(1 0 0 1 95 1102.9065)" class="st9 st4 st7">14.3%</text>
<text transform="matrix(1 0 0 1 336 887.2314)" class="st8 st4 st5">Korea</text>
<text transform="matrix(1 0 0 1 566 1020.1315)" class="st9 st4 st7">44.4%</text>
<text transform="matrix(1 0 0 1 420 1091.6315)" class="st9 st4 st7">18.4%</text>
<text transform="matrix(1 0 0 1 418 770.5959)" class="st9 st4 st7">30.1%</text>
<rect x="321.7" y="285.2" class="st10" width="293" height="283"/>
<rect x="321.7" y="285.2" class="st11" width="293" height="283"/>
<rect x="321.7" y="285.2" class="st11" width="293" height="283"/>
<path class="st0" d="M0.7,288.2h2h2h2h2h2h1h2h2h2h2h2h2h2h2h2h1h2h2h2h2h2h2h2h2h2h1h2h2h2h2h2h2h2h2h2h1h2h2h2h2h2h2h2h2h2h1h2h2
	h2h2h2h2h2h2h1h2h2h2h2h2h2h2h2h2h2h1h2h2h2h2h2h2h2h2h2h1h2h2h2h2h2h2h2h2h2h1h2h2h2h2h2h2h2h2h2h1h2h2h2h2h2h2h2h2h2h1h2h2h2h2h2
	h2h2h2h2h1h2h2h2h2h2h2h2h2h2h1h2h2h2h2h2h2h2h2h2h1h2h2h2h2h2h2h2h2h2h1h2h2h2h2v38.6l-2,0l-2,0l-2,0l-2,0l-1,0l-2,0l-2,0l-2,0
	l-2,0.1l-2,0.1l-2,0.1l-2,0.1l-2,0.1l-2,0.1l-1,0.1l-2,0.1l-2,0.1l-2,0.1l-2,0.1l-2,0.1l-2,0.1l-2,0.1l-2,0.1l-2,0.1l-1,0l-2,0l-2,0
	l-2,0l-2,0l-2,0l-2,0l-2,0l-2,0l-2,0l-1,0l-2,0l-2,0.1l-2,0.1l-2,0.1l-2,0.1l-2,0.2l-2,0.2l-2,0.2l-2,0.2l-1,0.2l-2,0.2l-2,0.2
	l-2,0.2l-2,0.2l-2,0.2l-2,0.2l-2,0.2l-2,0.2l-2,0.2l-1,0.1l-2,0.1l-2,0.1l-2,0.1l-2,0.1l-2,0.1l-2,0l-2,0l-2,0l-2,0l-1,0l-2,0
	l-2,0.1l-2,0.2l-2,0.3l-2,0.3l-2,0.4l-2,0.4l-2,0.4l-2,0.4l-1,0.5l-2,0.6l-2,0.7l-2,0.8l-2,0.8l-2,0.7l-2,0.6l-2,0.5l-2,0.4l-2,0.3
	l-1,0.3l-2,0.3l-2,0.3l-2,0.3l-2,0.3l-2,0.3l-2,0.4l-2,0.4l-2,0.4l-2,0.4l-2,0.5l-1,0.6l-2,0.5l-2,0.4l-2,0.4l-2,0.4l-2,0.3l-2,0.2
	l-2,0.2l-2,0.2l-1,0.2l-2,0.2l-2,0l-2-0.2l-2-0.3l-2-0.3l-2-0.3l-2-0.2l-2-0.1l-2,0.2l-1,0.4l-2,0.5l-2,0.5l-2,0.5l-2,0.5l-2,0.7
	l-2,1l-2,1.3l-2,1.5l-2,1.7l-1,1.9l-2,1.8l-2,1.8l-2,1.9l-2,1.7l-2,1.5l-2,1.4l-2,1.4l-2,1.2l-2,1.5l-1,0.9l-2-0.1l-2,0.1l-2,0.5
	l-2,0.5l-2-0.3l-2-0.8l-2-0.7l-2-0.6l-2-1.1l-1-1.3l-2-1.2l-2-1.3l-2-1.4l-2-1l-2-1V288.2z"/>
<path class="st1" d="M0.7,362.6l2,1l2,1l2,1.4l2,1.3l2,1.2l1,1.3l2,1.1l2,0.6l2,0.7l2,0.8l2,0.3l2-0.5l2-0.5l2-0.1l2,0.1l1-0.9
	l2-1.5l2-1.2l2-1.4l2-1.4l2-1.5l2-1.7l2-1.9l2-1.8l2-1.8l1-1.9l2-1.7l2-1.5l2-1.3l2-1l2-0.7l2-0.5l2-0.5l2-0.5l2-0.5l1-0.4l2-0.2
	l2,0.1l2,0.2l2,0.3l2,0.3l2,0.3l2,0.2l2,0l2-0.2l1-0.2l2-0.2l2-0.2l2-0.2l2-0.3l2-0.4l2-0.4l2-0.4l2-0.5l1-0.6l2-0.5l2-0.4l2-0.4
	l2-0.4l2-0.4l2-0.3l2-0.3l2-0.3l2-0.3l2-0.3l1-0.3l2-0.3l2-0.4l2-0.5l2-0.6l2-0.7l2-0.8l2-0.8l2-0.7l2-0.6l1-0.5l2-0.4l2-0.4l2-0.4
	l2-0.4l2-0.3l2-0.3l2-0.2l2-0.1l2,0l1,0l2,0l2,0l2,0l2,0l2-0.1l2-0.1l2-0.1l2-0.1l2-0.1l1-0.1l2-0.2l2-0.2l2-0.2l2-0.2l2-0.2l2-0.2
	l2-0.2l2-0.2l2-0.2l1-0.2l2-0.2l2-0.2l2-0.2l2-0.2l2-0.1l2-0.1l2-0.1l2-0.1l2,0l1,0l2,0l2,0l2,0l2,0l2,0l2,0l2,0l2,0l2,0l1,0l2-0.1
	l2-0.1l2-0.1l2-0.1l2-0.1l2-0.1l2-0.1l2-0.1l2-0.1l1-0.1l2-0.1l2-0.1l2-0.1l2-0.1l2-0.1l2-0.1l2,0l2,0l2,0l1,0l2,0l2,0l2,0l2,0
	v152.6l-2,0.2l-2,0.2l-2,0.2l-2,0.2l-1,0.2l-2,0.2l-2,0.2l-2,0.1l-2,0.1l-2,0.1l-2,0.1l-2,0.1l-2,0.1l-2,0.1l-1,0.1l-2,0.1l-2,0.2
	l-2,0.2l-2,0.3l-2,0.3l-2,0.4l-2,0.4l-2,0.4l-2,0.4l-1,0.4l-2,0.5l-2,0.6l-2,0.6l-2,0.7l-2,0.6l-2,0.6l-2,0.6l-2,0.6l-2,0.6l-1,0.6
	l-2,0.6l-2,0.5l-2,0.5l-2,0.5l-2,0.5l-2,0.5l-2,0.5l-2,0.6l-2,0.6l-1,0.6l-2,0.6l-2,0.5l-2,0.5l-2,0.4l-2,0.4l-2,0.4l-2,0.4l-2,0.4
	l-2,0.4l-1,0.4l-2,0.4l-2,0.3l-2,0.3l-2,0.2l-2,0.2l-2,0.2l-2,0.3l-2,0.3l-2,0.5l-1,0.6l-2,0.7l-2,0.6l-2,0.6l-2,0.6l-2,0.8l-2,0.9
	l-2,1.1l-2,1.1l-2,1.1l-1,1.3l-2,1.3l-2,1.3l-2,1.3l-2,1.2l-2,1.3l-2,1.2l-2,1.1l-2,0.9l-2,1.1l-1,0.9l-2,0.5l-2,0.7l-2,0.8l-2,0.9
	l-2,0.7l-2,0.5l-2,0.5l-2,0.5l-2,0.2l-2,0.2l-1,0.2l-2,0.1l-2,0l-2,0l-2-0.1l-2-0.2l-2-0.2l-2-0.1l-2-0.1l-1,0l-2,0.2l-2,0.2l-2,0.1
	l-2,0.2l-2,0.1l-2,0l-2,0.3l-2,0.4l-2,0.2l-1,0.3l-2,0.4l-2,0.3l-2,0.2l-2,0.3l-2,0.3l-2,0.3l-2,0.4l-2,0.5l-2,0.6l-1,0.6l-2,0.5
	l-2,0.4l-2,0.4l-2,0.3l-2,0.2l-2,0.2l-2,0.1l-2,0.2l-2,0.2l-1,0.1l-2,0.1l-2,0.2l-2,0.2l-2,0.2l-2,0.2l-2,0.3l-2,0.2l-2,0.1l-2,0.2
	l-1,0.3l-2,0.3l-2,0.3l-2,0.4l-2,0.4l-2,0.4V362.6z"/>
<path class="st2" d="M0.7,540.7l2-0.4l2-0.4l2-0.4l2-0.3l2-0.3l1-0.3l2-0.2l2-0.1l2-0.2l2-0.3l2-0.2l2-0.2l2-0.2l2-0.2l2-0.1l1-0.1
	l2-0.2l2-0.2l2-0.1l2-0.2l2-0.2l2-0.3l2-0.4l2-0.4l2-0.5l1-0.6l2-0.6l2-0.5l2-0.4l2-0.3l2-0.3l2-0.3l2-0.2l2-0.3l2-0.4l1-0.3l2-0.2
	l2-0.4l2-0.3l2,0l2-0.1l2-0.2l2-0.1l2-0.2l2-0.2l1,0l2,0.1l2,0.1l2,0.2l2,0.2l2,0.1l2,0l2,0l2-0.1l1-0.2l2-0.2l2-0.2l2-0.5l2-0.5
	l2-0.5l2-0.7l2-0.9l2-0.8l2-0.7l2-0.5l1-0.9l2-1.1l2-0.9l2-1.1l2-1.2l2-1.3l2-1.2l2-1.3l2-1.3l2-1.3l1-1.3l2-1.1l2-1.1l2-1.1l2-0.9
	l2-0.8l2-0.6l2-0.6l2-0.6l2-0.7l1-0.6l2-0.5l2-0.3l2-0.3l2-0.2l2-0.2l2-0.2l2-0.3l2-0.3l2-0.4l1-0.4l2-0.4l2-0.4l2-0.4l2-0.4l2-0.4
	l2-0.4l2-0.5l2-0.5l2-0.6l1-0.6l2-0.6l2-0.6l2-0.5l2-0.5l2-0.5l2-0.5l2-0.5l2-0.5l2-0.6l1-0.6l2-0.6l2-0.6l2-0.6l2-0.6l2-0.6l2-0.7
	l2-0.6l2-0.6l2-0.5l1-0.4l2-0.4l2-0.4l2-0.4l2-0.4l2-0.3l2-0.3l2-0.2l2-0.2l2-0.1l1-0.1l2-0.1l2-0.1l2-0.1l2-0.1l2-0.1l2-0.1l2-0.1
	l2-0.2l2-0.2l1-0.2l2-0.2l2-0.2l2-0.2l2-0.2v83.8h-2h-2h-2h-2h-1h-2h-2h-2h-2h-2h-2h-2h-2h-2h-1h-2h-2h-2h-2h-2h-2h-2h-2h-2h-1h-2
	h-2h-2h-2h-2h-2h-2h-2h-2h-1h-2h-2h-2h-2h-2h-2h-2h-2h-2h-1h-2h-2h-2h-2h-2h-2h-2h-2h-2h-1h-2h-2h-2h-2h-2h-2h-2h-2h-2h-1h-2h-2h-2
	h-2h-2h-2h-2h-2h-2h-1h-2h-2h-2h-2h-2h-2h-2h-2h-2h-1h-2h-2h-2h-2h-2h-2h-2h-2h-2h-2h-1h-2h-2h-2h-2h-2h-2h-2h-2h-1h-2h-2h-2h-2h-2
	h-2h-2h-2h-2h-1h-2h-2h-2h-2h-2h-2h-2h-2h-2h-1h-2h-2h-2h-2h-2h-2h-2h-2h-2h-1h-2h-2h-2h-2h-2h-2h-2h-2h-2h-1h-2h-2h-2h-2h-2V540.7z
	"/>
<path class="st0" d="M325.7,288.2h2h2h2h2h2h1h2h2h2h2h2h2h2h2h2h1h2h2h2h2h2h2h2h2h2h1h2h2h2h2h2h2h2h2h2h1h2h2h2h2h2h2h2h2h2h1h2
	h2h2h2h2h2h2h2h1h2h2h2h2h2h2h2h2h2h2h1h2h2h2h2h2h2h2h2h2h1h2h2h2h2h2h2h2h2h2h1h2h2h2h2h2h2h2h2h2h1h2h2h2h2h2h2h2h2h2h1h2h2h2h2
	h2h2h2h2h2h1h2h2h2h2h2h2h2h2h2h1h2h2h2h2h2h2h2h2h2h1h2h2h2h2h2h2h2h2h2h1h2h2h2h2v32.4l-2-0.1l-2-0.1l-2-0.1l-2-0.1l-1-0.1l-2-0.1
	l-2-0.1l-2-0.1l-2-0.1l-2-0.1l-2-0.1l-2-0.1l-2-0.1l-2-0.1l-1,0l-2-0.1l-2,0l-2-0.1l-2,0l-2,0l-2,0l-2,0l-2,0l-2,0l-1-0.1l-2,0l-2,0
	l-2-0.1l-2,0l-2-0.1l-2-0.1l-2,0l-2-0.1l-2-0.1l-1-0.2l-2-0.1l-2-0.1l-2-0.2l-2-0.1l-2-0.1l-2-0.2l-2-0.2l-2-0.2l-2-0.2l-1-0.1
	l-2-0.1l-2,0l-2,0l-2,0l-2,0.1l-2,0.1l-2,0.1l-2,0.2l-2,0.2l-1,0.2l-2,0.3l-2,0.3l-2,0.3l-2,0.3l-2,0.3l-2,0.3l-2,0.2l-2,0.2l-2,0.2
	l-1,0.2l-2,0.1l-2,0.2l-2,0.2l-2,0.3l-2,0.4l-2,0.4l-2,0.3l-2,0.4l-2,0.3l-1,0.1l-2,0.1l-2,0.1l-2,0.2l-2,0.2l-2,0.2l-2,0.4l-2,0.4
	l-2,0.5l-2,0.6l-1,0.7l-2,0.9l-2,1.1l-2,1.2l-2,1.4l-2,1.7l-2,1.8l-2,1.8l-2,1.7l-2,1.6l-2,1.5l-1,1.3l-2,1.2l-2,1.2l-2,1.2l-2,1.1
	l-2,1.1l-2,1.2l-2,1.4l-2,1.5l-1,1.6l-2,1.8l-2,1.8l-2,1.8l-2,1.7l-2,1.6l-2,1.7l-2,1.6l-2,1.4l-2,1.4l-1,1.5l-2,1.6l-2,1.8l-2,1.8
	l-2,2l-2,2l-2,2.1l-2,2.2l-2,2.3l-2,2.4l-1,2.4l-2,2.4l-2,2.4l-2,2.4l-2,2.5l-2,2.3l-2,2.1l-2,2l-2,1.7l-2,1.6l-1,1.5l-2,0.9l-2,0.5
	l-2,0.2l-2-0.2l-2-0.3l-2-0.6l-2-0.8l-2-1l-2-1.2l-1-1.1l-2-1.1l-2-1.1l-2-0.8l-2-0.5l-2-0.4V288.2z"/>
<path class="st1" d="M325.7,404.2l2,0.4l2,0.5l2,0.8l2,1.1l2,1.1l1,1.1l2,1.2l2,1l2,0.8l2,0.6l2,0.3l2,0.2l2-0.2l2-0.5l2-0.9l1-1.5
	l2-1.6l2-1.7l2-2l2-2.1l2-2.3l2-2.5l2-2.4l2-2.4l2-2.4l1-2.4l2-2.4l2-2.3l2-2.2l2-2.1l2-2l2-2l2-1.8l2-1.8l2-1.6l1-1.5l2-1.4l2-1.4
	l2-1.6l2-1.7l2-1.6l2-1.7l2-1.8l2-1.8l2-1.8l1-1.6l2-1.5l2-1.4l2-1.2l2-1.1l2-1.1l2-1.2l2-1.2l2-1.2l1-1.3l2-1.5l2-1.6l2-1.7l2-1.8
	l2-1.8l2-1.7l2-1.4l2-1.2l2-1.1l2-0.9l1-0.7l2-0.6l2-0.5l2-0.4l2-0.4l2-0.2l2-0.2l2-0.2l2-0.1l2-0.1l1-0.1l2-0.3l2-0.4l2-0.3l2-0.4
	l2-0.4l2-0.3l2-0.2l2-0.2l2-0.1l1-0.2l2-0.2l2-0.2l2-0.2l2-0.3l2-0.3l2-0.3l2-0.3l2-0.3l2-0.3l1-0.2l2-0.2l2-0.2l2-0.1l2-0.1l2-0.1
	l2,0l2,0l2,0l2,0.1l1,0.1l2,0.2l2,0.2l2,0.2l2,0.2l2,0.1l2,0.1l2,0.2l2,0.1l2,0.1l1,0.2l2,0.1l2,0.1l2,0l2,0.1l2,0.1l2,0l2,0.1l2,0
	l2,0l1,0.1l2,0l2,0l2,0l2,0l2,0l2,0l2,0.1l2,0l2,0.1l1,0l2,0.1l2,0.1l2,0.1l2,0.1l2,0.1l2,0.1l2,0.1l2,0.1l2,0.1l1,0.1l2,0.1l2,0.1
	l2,0.1l2,0.1v140l-2-0.1l-2,0.1l-2,0l-2,0.1l-1-0.1l-2,0l-2-0.1l-2-0.1l-2-0.1l-2-0.1l-2-0.2l-2-0.2l-2-0.3l-2-0.4l-1-0.3l-2-0.4
	l-2-0.3l-2-0.3l-2-0.2l-2-0.1l-2-0.2l-2-0.2l-2-0.2l-2-0.3l-1-0.6l-2-0.6l-2-0.7l-2-0.6l-2-0.5l-2-0.5l-2-0.3l-2-0.2l-2-0.1l-2,0.1
	l-1,0.3l-2,0.5l-2,0.6l-2,0.8l-2,0.9l-2,0.9l-2,1l-2,0.9l-2,1l-2,0.9l-1,0.9l-2,0.8l-2,0.9l-2,0.9l-2,1.1l-2,1.2l-2,1.4l-2,1.6
	l-2,1.7l-2,1.9l-1,1.9l-2,2l-2,2l-2,2l-2,1.9l-2,1.7l-2,1.6l-2,1.5l-2,1.5l-2,1.5l-1,1.6l-2,1.6l-2,1.8l-2,1.9l-2,1.9l-2,2l-2,2
	l-2,2.1l-2,2.1l-2,2.1l-1,2.1l-2,2l-2,2.1l-2,2l-2,2.1l-2,2.1l-2,2.1l-2,2l-2,1.8l-2,1.6l-1,1.4l-2,1.1l-2,1l-2,0.8l-2,0.7l-2,0.7
	l-2,0.7l-2,0.7l-2,0.6l-2,0.6l-2,0.5l-1,0.5l-2,0.5l-2,0.5l-2,0.5l-2,0.5l-2,0.5l-2,0.5l-2,0.5l-2,0.5l-1,0.6l-2,0.7l-2,0.7l-2,0.8
	l-2,0.7l-2,0.8l-2,0.8l-2,0.8l-2,0.6l-2,0.7l-1,0.5l-2,0.5l-2,0.5l-2,0.4l-2,0.4l-2,0.4l-2,0.5l-2,0.5l-2,0.5l-2,0.5l-1,0.4l-2,0.4
	l-2,0.3l-2,0.2l-2,0.3l-2,0.2l-2,0.2l-2,0.3l-2,0.2l-2,0.2l-1,0.2l-2,0.1l-2,0.1l-2,0.1l-2,0l-2,0.1l-2,0l-2,0.1l-2,0l-2,0.1l-1,0
	l-2,0l-2-0.1l-2-0.1l-2,0l-2,0V404.2z"/>
<path class="st2" d="M325.7,557.4l2,0l2,0l2,0.1l2,0.1l2,0l1,0l2-0.1l2,0l2-0.1l2,0l2-0.1l2,0l2-0.1l2-0.1l2-0.1l1-0.2l2-0.2l2-0.2
	l2-0.3l2-0.2l2-0.2l2-0.3l2-0.2l2-0.3l2-0.4l1-0.4l2-0.5l2-0.5l2-0.5l2-0.5l2-0.4l2-0.4l2-0.4l2-0.5l2-0.5l1-0.5l2-0.7l2-0.6l2-0.8
	l2-0.8l2-0.8l2-0.7l2-0.8l2-0.7l2-0.7l1-0.6l2-0.5l2-0.5l2-0.5l2-0.5l2-0.5l2-0.5l2-0.5l2-0.5l1-0.5l2-0.5l2-0.6l2-0.6l2-0.7l2-0.7
	l2-0.7l2-0.7l2-0.8l2-1l2-1.1l1-1.4l2-1.6l2-1.8l2-2l2-2.1l2-2.1l2-2.1l2-2l2-2.1l2-2l1-2.1l2-2.1l2-2.1l2-2.1l2-2l2-2l2-1.9l2-1.9
	l2-1.8l2-1.6l1-1.6l2-1.5l2-1.5l2-1.5l2-1.6l2-1.7l2-1.9l2-2l2-2l2-2l1-1.9l2-1.9l2-1.7l2-1.6l2-1.4l2-1.2l2-1.1l2-0.9l2-0.9l2-0.8
	l1-0.9l2-0.9l2-1l2-0.9l2-1l2-0.9l2-0.9l2-0.8l2-0.6l2-0.5l1-0.3l2-0.1l2,0.1l2,0.2l2,0.3l2,0.5l2,0.5l2,0.6l2,0.7l2,0.6l1,0.6
	l2,0.3l2,0.2l2,0.2l2,0.2l2,0.1l2,0.2l2,0.3l2,0.3l2,0.4l1,0.3l2,0.4l2,0.3l2,0.2l2,0.2l2,0.1l2,0.1l2,0.1l2,0.1l2,0l1,0.1l2-0.1
	l2,0l2-0.1l2,0.1v102.6h-2h-2h-2h-2h-1h-2h-2h-2h-2h-2h-2h-2h-2h-2h-1h-2h-2h-2h-2h-2h-2h-2h-2h-2h-1h-2h-2h-2h-2h-2h-2h-2h-2h-2h-1
	h-2h-2h-2h-2h-2h-2h-2h-2h-2h-1h-2h-2h-2h-2h-2h-2h-2h-2h-2h-1h-2h-2h-2h-2h-2h-2h-2h-2h-2h-1h-2h-2h-2h-2h-2h-2h-2h-2h-2h-1h-2h-2
	h-2h-2h-2h-2h-2h-2h-2h-1h-2h-2h-2h-2h-2h-2h-2h-2h-2h-2h-1h-2h-2h-2h-2h-2h-2h-2h-2h-1h-2h-2h-2h-2h-2h-2h-2h-2h-2h-1h-2h-2h-2h-2
	h-2h-2h-2h-2h-2h-1h-2h-2h-2h-2h-2h-2h-2h-2h-2h-1h-2h-2h-2h-2h-2h-2h-2h-2h-2h-1h-2h-2h-2h-2h-2V557.4z"/>
<text transform="matrix(1 0 0 1 9.7144 308.1855)" class="st3 st4 st5">USA</text>
<text transform="matrix(1 0 0 1 239.7144 479.3105)" class="st6 st4 st7">30.5%</text>
<text transform="matrix(1 0 0 1 93.7144 514.7854)" class="st6 st4 st7">17.6%</text>
<text transform="matrix(1 0 0 1 334.7144 308.1855)" class="st3 st4 st5">Taiwan</text>
<text transform="matrix(1 0 0 1 564.7144 460.6104)" class="st6 st4 st7">37.3%</text>
<text transform="matrix(1 0 0 1 418.7144 515.0604)" class="st6 st4 st7">17.5%</text>
<text transform="matrix(1 0 0 1 9.7144 308.1855)" class="st3 st4 st5">USA</text>
<text transform="matrix(1 0 0 1 239.7144 479.3105)" class="st6 st4 st7">30.5%</text>
<text transform="matrix(1 0 0 1 93.7144 514.7854)" class="st6 st4 st7">17.6%</text>
<text transform="matrix(1 0 0 1 334.7144 308.1855)" class="st3 st4 st5">Taiwan</text>
<text transform="matrix(1 0 0 1 564.7144 460.6104)" class="st6 st4 st7">37.3%</text>
<text transform="matrix(1 0 0 1 418.7144 515.0604)" class="st6 st4 st7">17.5%</text>
<text transform="matrix(1 0 0 1 9.7144 308.1855)" class="st8 st4 st5">USA</text>
<text transform="matrix(1 0 0 1 239.7144 479.3105)" class="st9 st4 st7">30.5%</text>
<text transform="matrix(1 0 0 1 93.7144 514.7854)" class="st9 st4 st7">17.6%</text>
<text transform="matrix(1 0 0 1 334.7144 308.1855)" class="st8 st4 st5">Taiwan</text>
<text transform="matrix(1 0 0 1 564.7144 460.6104)" class="st9 st4 st7">37.3%</text>
<text transform="matrix(1 0 0 1 418.7144 515.0604)" class="st9 st4 st7">17.5%</text>
</svg>
