<?xml version="1.0" encoding="utf-8"?>
<!-- Generator: Adobe Illustrator 27.9.0, SVG Export Plug-In . SVG Version: 6.00 Build 0)  -->
<svg version="1.1" id="svgRight" xmlns="http://www.w3.org/2000/svg" xmlns:xlink="http://www.w3.org/1999/xlink" x="0px" y="0px"
	 viewBox="0 0 650 650" style="enable-background:new 0 0 650 650;" xml:space="preserve">
<style type="text/css">
	.st0{fill:#00A097;stroke:#FFFFFF;stroke-width:0.5;}
	.st1{fill:#5AC8C0;stroke:#FFFFFF;stroke-width:0.5;}
	.st2{fill:#A6D9D9;stroke:#FFFFFF;stroke-width:0.5;}
	.st3{font-family:'SourceSansPro-Semibold';}
	.st4{font-size:13px;}
	.st5{font-family:'Whitney-Semibold';}
	.st6{font-size:20px;}
</style>
<rect x="460" y="374.4" class="st0" width="70" height="245.6"/>
<rect x="110" y="441.1" class="st0" width="70" height="178.9"/>
<rect x="320" y="390.8" class="st0" width="70" height="229.2"/>
<rect x="390" y="387.8" class="st0" width="70" height="232.2"/>
<rect x="530" y="353.4" class="st0" width="70" height="266.6"/>
<rect x="40" y="546.1" class="st0" width="70" height="73.9"/>
<rect x="250" y="396.2" class="st0" width="70" height="223.8"/>
<rect x="180" y="437.2" class="st0" width="70" height="182.8"/>
<rect x="460" y="78.5" class="st1" width="70" height="295.9"/>
<rect x="110" y="103.6" class="st1" width="70" height="337.6"/>
<rect x="320" y="86.5" class="st1" width="70" height="304.3"/>
<rect x="390" y="87.4" class="st1" width="70" height="300.4"/>
<rect x="530" y="75.4" class="st1" width="70" height="277.9"/>
<rect x="40" y="144.4" class="st1" width="70" height="401.7"/>
<rect x="250" y="90.7" class="st1" width="70" height="305.5"/>
<rect x="180" y="104.3" class="st1" width="70" height="332.9"/>
<rect x="460" y="20" class="st2" width="70" height="58.5"/>
<rect x="110" y="20" class="st2" width="70" height="83.6"/>
<rect x="320" y="20" class="st2" width="70" height="66.5"/>
<rect x="390" y="20" class="st2" width="70" height="67.4"/>
<rect x="530" y="20" class="st2" width="70" height="55.4"/>
<rect x="40" y="20" class="st2" width="70" height="124.4"/>
<rect x="250" y="20" class="st2" width="70" height="70.7"/>
<rect x="180" y="20" class="st2" width="70" height="84.3"/>
<text transform="matrix(1 0 0 1 25.4385 623.7)" class="st3 st4">0</text>
<text transform="matrix(1 0 0 1 19.877 503.7)" class="st3 st4">20</text>
<text transform="matrix(1 0 0 1 19.877 383.7)" class="st3 st4">40</text>
<text transform="matrix(1 0 0 1 19.877 263.7)" class="st3 st4">60</text>
<text transform="matrix(1 0 0 1 19.877 143.7)" class="st3 st4">80</text>
<text transform="matrix(1 0 0 1 54.9349 636.1)" class="st3 st4">Nigeria</text>
<text transform="matrix(1 0 0 1 130.7717 636.1)" class="st3 st4">India</text>
<text transform="matrix(1 0 0 1 203.5991 636.1)" class="st3 st4">USA</text>
<text transform="matrix(1 0 0 1 265.0258 636.1)" class="st3 st4">Taiwan</text>
<text transform="matrix(1 0 0 1 342.5786 636.1)" class="st3 st4">Italy</text>
<text transform="matrix(1 0 0 1 407.8272 636.1)" class="st3 st4">Japan</text>
<text transform="matrix(1 0 0 1 478.9067 636.1)" class="st3 st4">China</text>
<text transform="matrix(1 0 0 1 543.3091 636.1)" class="st3 st4">S.Korea</text>
<text transform="matrix(1 0 0 1 2.2363 23.7)" class="st3 st4">100%</text>
<text transform="matrix(1 0 0 1 40 15.2762)" class="st5 st6">Age Distributions Across the Globe (2100)</text>
</svg>
