<?xml version="1.0" encoding="utf-8"?>
<!-- Generator: Adobe Illustrator 27.9.0, SVG Export Plug-In . SVG Version: 6.00 Build 0)  -->
<svg version="1.1" id="svgRight" xmlns="http://www.w3.org/2000/svg" xmlns:xlink="http://www.w3.org/1999/xlink" x="0px" y="0px"
	 viewBox="0 0 650 650" style="enable-background:new 0 0 650 650;" xml:space="preserve">
<style type="text/css">
	.st0{font-family:'SourceSansPro-Semibold';}
	.st1{font-size:13px;}
	.st2{fill:#00A097;stroke:#FFFFFF;stroke-width:0.5;}
	.st3{fill:#5AC8C0;stroke:#FFFFFF;stroke-width:0.5;}
	.st4{fill:#A6D9D9;stroke:#FFFFFF;stroke-width:0.5;}
	.st5{font-family:'Whitney-Semibold';}
	.st6{font-size:20px;}
</style>
<text transform="matrix(1 0 0 1 25.4385 623.7)" class="st0 st1">0</text>
<text transform="matrix(1 0 0 1 19.877 503.7)" class="st0 st1">20</text>
<text transform="matrix(1 0 0 1 19.877 383.7)" class="st0 st1">40</text>
<text transform="matrix(1 0 0 1 19.877 263.7)" class="st0 st1">60</text>
<text transform="matrix(1 0 0 1 19.877 143.7)" class="st0 st1">80</text>
<text transform="matrix(1 0 0 1 2.2363 23.7)" class="st0 st1">100%</text>
<text transform="matrix(1 0 0 1 54.9349 636.1)" class="st0 st1">Nigeria</text>
<text transform="matrix(1 0 0 1 130.7717 636.1)" class="st0 st1">India</text>
<text transform="matrix(1 0 0 1 203.5991 636.1)" class="st0 st1">USA</text>
<text transform="matrix(1 0 0 1 265.0258 636.1)" class="st0 st1">Taiwan</text>
<text transform="matrix(1 0 0 1 342.5786 636.1)" class="st0 st1">Italy</text>
<text transform="matrix(1 0 0 1 407.8272 636.1)" class="st0 st1">Japan</text>
<text transform="matrix(1 0 0 1 478.9067 636.1)" class="st0 st1">China</text>
<text transform="matrix(1 0 0 1 543.3091 636.1)" class="st0 st1">S.Korea</text>
<rect x="460" y="590.6" class="st2" width="70" height="29.4"/>
<rect x="110" y="601.3" class="st2" width="70" height="18.7"/>
<rect x="320" y="570.7" class="st2" width="70" height="49.3"/>
<rect x="390" y="590.4" class="st2" width="70" height="29.6"/>
<rect x="530" y="603.7" class="st2" width="70" height="16.3"/>
<rect x="40" y="601.8" class="st2" width="70" height="18.2"/>
<rect x="250" y="607.4" class="st2" width="70" height="12.6"/>
<rect x="180" y="570.1" class="st2" width="70" height="49.9"/>
<rect x="460" y="231.9" class="st3" width="70" height="358.8"/>
<rect x="110" y="248.4" class="st3" width="70" height="352.9"/>
<rect x="320" y="178.6" class="st3" width="70" height="392.2"/>
<rect x="390" y="230" class="st3" width="70" height="360.5"/>
<rect x="530" y="278" class="st3" width="70" height="325.7"/>
<rect x="40" y="268.8" class="st3" width="70" height="332.9"/>
<rect x="250" y="274.1" class="st3" width="70" height="333.3"/>
<rect x="180" y="184.5" class="st3" width="70" height="385.6"/>
<rect x="460" y="20" class="st4" width="70" height="211.9"/>
<rect x="110" y="20" class="st4" width="70" height="228.4"/>
<rect x="320" y="20" class="st4" width="70" height="158.6"/>
<rect x="390" y="20" class="st4" width="70" height="210"/>
<rect x="530" y="20" class="st4" width="70" height="258"/>
<rect x="40" y="20" class="st4" width="70" height="248.8"/>
<rect x="250" y="20" class="st4" width="70" height="254.1"/>
<rect x="180" y="20" class="st4" width="70" height="164.5"/>
<text transform="matrix(1 0 0 1 40 15.2762)" class="st5 st6">Age Distributions Across the Globe (1950)</text>
</svg>
