<?xml version="1.0" encoding="utf-8"?>
<!-- Generator: Adobe Illustrator 27.9.0, SVG Export Plug-In . SVG Version: 6.00 Build 0)  -->
<svg version="1.1" id="svg" xmlns="http://www.w3.org/2000/svg" xmlns:xlink="http://www.w3.org/1999/xlink" x="0px" y="0px"
	 viewBox="0 0 650 650" style="enable-background:new 0 0 650 650;" xml:space="preserve">
<style type="text/css">
	.st0{fill:none;stroke:#100E2B;stroke-dasharray:640.162,640.162;}
	.st1{fill:none;stroke:#100E2B;stroke-dasharray:595.6062,595.6062;}
	.st2{fill:none;stroke:#100E2B;stroke-dasharray:610.7471,610.7471;}
	.st3{fill:none;stroke:#100E2B;stroke-dasharray:621.9591,621.9591;}
	.st4{fill:none;stroke:#100E2B;stroke-dasharray:667.0713,667.0713;}
	.st5{fill:none;stroke:#100E2B;stroke-dasharray:567.3488,567.3488;}
	.st6{fill:none;stroke:#100E2B;stroke-dasharray:584.6473,584.6473;}
	.st7{font-family:'SourceSansPro-Semibold';}
	.st8{font-size:13px;}
	.st9{fill:#CE7960;}
	.st10{font-size:16px;}
	.st11{fill:none;stroke:#CE7960;stroke-width:3.5;stroke-dasharray:641.2808,641.2808;}
	.st12{enable-background:new    ;}
	.st13{font-family:'Whitney-Semibold';}
	.st14{font-size:20px;}
	.st15{opacity:0;fill:#3A9C96;enable-background:new    ;}
	.st16{font-family:'Arial-BoldMT';}
	.st17{opacity:0;fill:#FFFFFF;enable-background:new    ;}
	.st18{font-size:18px;}
</style>
<path id="China" class="st0" d="M40,589.7c0,0,2.8,0.6,4,0.9s1.8,0.6,3,0.8s2.7,0.5,4,0.7s2.7,0.4,4,0.6s2.8,0.5,4,0.7
	s1.8,0.5,3,0.7s2.7,0.4,4,0.6s2.7,0.3,4,0.4c1.3,0.1,2.8,0.2,4,0.4s1.8,0.4,3,0.6s2.7,0.4,4,0.5s2.7,0.2,4,0.3s2.8,0.3,4,0.4
	s1.8,0.3,3,0.4s2.7,0.2,4,0.3s2.8,0.1,4,0.1s1.8,0,3-0.1c1.2,0,2.7-0.1,4-0.1s2.7-0.1,4-0.1s2.8-0.1,4-0.1s1.8-0.1,3-0.2
	s2.7-0.1,4-0.2c1.3-0.1,2.7-0.2,4-0.3s2.8-0.2,4-0.4c1.2-0.1,1.8-0.3,3-0.4s2.7-0.3,4-0.4c1.3-0.1,2.7-0.3,4-0.4
	c1.3-0.2,2.8-0.3,4-0.5s1.8-0.4,3-0.6s2.7-0.4,4-0.6s2.8-0.4,4-0.5s1.8-0.3,3-0.5s2.7-0.3,4-0.5s2.7-0.3,4-0.5s2.8-0.4,4-0.6
	s1.8-0.4,3-0.6c1.2-0.2,2.7-0.3,4-0.5s2.7-0.3,4-0.5s2.8-0.4,4-0.6c1.2-0.2,1.8-0.4,3-0.7c1.2-0.2,2.7-0.4,4-0.6
	c1.3-0.2,2.7-0.4,4-0.7s2.8-0.6,4-0.9c1.2-0.3,1.8-0.6,3-0.9s2.7-0.7,4-1s2.8-0.7,4-1s1.8-0.6,3-1s2.7-0.8,4-1.2s2.7-0.8,4-1.2
	s2.8-0.8,4-1.2s1.8-0.8,3-1.2s2.7-0.8,4-1.2s2.7-0.8,4-1.1s2.8-0.7,4-1s1.8-0.6,3-1s2.7-0.7,4-1s2.7-0.7,4-1s2.8-0.6,4-0.9
	c1.2-0.3,1.8-0.6,3-0.9s2.7-0.6,4-1s2.8-0.8,4-1.2s1.8-0.9,3-1.4s2.7-1,4-1.6s2.7-1.2,4-1.9s2.8-1.5,4-2.3s1.8-1.7,3-2.6
	s2.7-1.9,4-2.9s2.7-2.1,4-3.2s2.8-2.1,4-3.3s1.8-2.3,3-3.5c1.2-1.1,2.7-2.2,4-3.3s2.7-2.3,4-3.4c1.3-1.1,2.8-2.4,4-3.3
	c1.2-0.9,1.8-1.6,3-2.2c1.2-0.6,2.7-1,4-1.5s2.8-0.6,4-1.3s1.8-1.4,3-2.7s2.7-3.4,4-5.2s2.7-3.9,4-5.7s2.8-3.5,4-5.2s1.8-3.4,3-5.1
	c1.2-1.6,2.7-3,4-4.6s2.7-3.2,4-5s2.8-3.7,4-5.5s1.8-3.7,3-5.5s2.7-3.6,4-5.3c1.3-1.7,2.7-3.3,4-4.8c1.3-1.6,2.8-3.1,4-4.5
	s1.8-2.8,3-4s2.7-2.2,4-3.2c1.3-0.9,2.8-1.7,4-2.5c1.2-0.7,1.8-1.4,3-2s2.7-1.1,4-1.7s2.7-1.2,4-1.8c1.3-0.7,2.8-1.4,4-2.1
	s1.8-1.5,3-2.4s2.7-2,4-2.9s2.7-1.9,4-2.8s2.8-1.6,4-2.5s1.8-1.8,3-2.9s2.7-2.3,4-3.6s2.7-2.8,4-4.3c1.3-1.4,2.8-2.9,4-4.4
	c1.2-1.4,1.8-2.8,3-4.3s2.7-3.3,4-4.7c1.3-1.4,2.8-2.8,4-3.9s1.8-1.7,3-2.5s2.7-1.4,4-2s2.7-1.2,4-1.7s2.8-1,4-1.4s1.8-0.8,3-1.2
	c1.2-0.4,2.7-0.7,4-0.9s2.7-0.5,4-0.8c1.3-0.2,2.8-0.4,4-0.6s1.8-0.5,3-0.8s2.7-0.6,4-0.8s2.7-0.4,4-0.6s2.8-0.4,4-0.6
	s1.8-0.5,3-0.8s2.7-0.6,4-0.9s2.8-0.7,4-1.1s1.8-0.9,3-1.4s2.7-1.1,4-1.7s2.7-1.3,4-2s2.8-1.4,4-2.1s1.8-1.3,3-2.1s2.7-1.7,4-2.6
	s2.7-1.9,4-2.8s2.8-1.9,4-2.8s1.8-1.8,3-2.7c1.2-0.9,2.7-1.7,4-2.7s2.7-2.2,4-3.1s2.8-1.8,4-2.5s1.8-1.1,3-1.5s2.7-0.6,4-0.6
	s2.8,0.2,4,0.4c1.2,0.2,1.8,0.5,3,0.7s2.7,0.5,4,0.7s2.7,0.4,4,0.6s2.8,0.4,4,0.6s1.8,0.4,3,0.6s2.7,0.4,4,0.5s2.7,0.3,4,0.5
	s2.8,0.3,4,0.5s1.8,0.3,3,0.5c1.2,0.1,2.7,0.3,4,0.4s2.7,0.3,4,0.4s2.8,0.3,4,0.4s1.8,0.2,3,0.4c1.2,0.1,4,0.3,4,0.3"/>
<path id="India" class="st1" d="M40,601.4c0,0,2.8,0,4-0.1s1.8-0.2,3-0.3s2.7-0.2,4-0.3s2.7-0.2,4-0.3s2.8-0.1,4-0.2s1.8,0,3,0
	s2.7,0,4,0.1s2.7,0.1,4,0.1s2.8,0,4,0s1.8-0.1,3-0.1s2.7-0.1,4-0.2c1.3-0.1,2.7-0.2,4-0.3s2.8-0.3,4-0.4c1.2-0.1,1.8-0.2,3-0.3
	s2.7-0.2,4-0.3s2.8-0.1,4-0.2s1.8-0.1,3-0.1s2.7,0,4,0s2.7,0,4-0.1c1.3,0,2.8-0.1,4-0.1s1.8-0.1,3-0.1c1.2-0.1,2.7-0.1,4-0.2
	c1.3-0.1,2.7-0.2,4-0.3s2.8-0.2,4-0.3s1.8-0.2,3-0.3s2.7-0.2,4-0.3s2.7-0.2,4-0.2c1.3-0.1,2.8-0.1,4-0.2c1.2-0.1,1.8-0.1,3-0.1
	s2.7-0.1,4-0.1s2.8,0,4-0.1s1.8,0,3,0s2.7,0,4,0s2.7,0,4,0s2.8,0,4,0s1.8,0,3,0s2.7,0,4-0.1c1.3,0,2.7,0,4-0.1s2.8-0.1,4-0.1
	s1.8-0.1,3-0.1s2.7-0.1,4-0.1c1.3-0.1,2.7-0.1,4-0.2c1.3-0.1,2.8-0.1,4-0.2c1.2-0.1,1.8-0.1,3-0.2s2.7-0.2,4-0.2
	c1.3-0.1,2.8-0.2,4-0.3s1.8-0.2,3-0.3s2.7-0.2,4-0.3s2.7-0.2,4-0.3s2.8-0.2,4-0.3s1.8-0.2,3-0.3s2.7-0.2,4-0.4
	c1.3-0.1,2.7-0.3,4-0.4s2.8-0.2,4-0.4c1.2-0.1,1.8-0.2,3-0.3s2.7-0.2,4-0.3s2.7-0.2,4-0.3s2.8-0.2,4-0.3c1.2-0.1,1.8-0.2,3-0.3
	s2.7-0.2,4-0.4c1.3-0.1,2.8-0.3,4-0.4c1.2-0.2,1.8-0.3,3-0.5s2.7-0.3,4-0.6s2.7-0.5,4-0.8s2.8-0.7,4-1.1s1.8-0.8,3-1.2
	s2.7-0.8,4-1.2s2.7-0.8,4-1.3c1.3-0.4,2.8-0.9,4-1.3s1.8-0.9,3-1.2s2.7-0.6,4-0.8s2.7-0.3,4-0.6s2.8-0.6,4-1.1s1.8-1,3-1.5
	s2.7-1,4-1.5s2.8-1,4-1.5s1.8-1,3-1.5s2.7-1,4-1.5s2.7-1,4-1.5s2.8-1,4-1.5s1.8-1,3-1.5s2.7-1,4-1.5s2.7-1,4-1.6s2.8-1.1,4-1.6
	s1.8-1.1,3-1.6s2.7-1.1,4-1.6s2.7-1.1,4-1.7c1.3-0.6,2.8-1.1,4-1.7s1.8-1.2,3-1.8s2.7-1.2,4-1.8s2.8-1.2,4-1.8s1.8-1.2,3-1.8
	s2.7-1.2,4-1.8s2.7-1.3,4-1.9s2.8-1.3,4-2s1.8-1.4,3-2.1c1.2-0.7,2.7-1.4,4-2.2s2.7-1.5,4-2.2s2.8-1.5,4-2.3s1.8-1.6,3-2.4
	c1.2-0.8,2.7-1.6,4-2.4s2.7-1.6,4-2.5s2.8-1.6,4-2.5s1.8-1.7,3-2.5s2.7-1.6,4-2.5s2.8-1.6,4-2.5s1.8-1.7,3-2.5s2.7-1.7,4-2.5
	s2.7-1.7,4-2.5s2.8-1.7,4-2.5s1.8-1.7,3-2.5s2.7-1.7,4-2.5s2.7-1.7,4-2.5s2.8-1.6,4-2.5s1.8-1.6,3-2.5s2.7-1.7,4-2.5s2.7-1.7,4-2.5
	s2.8-1.7,4-2.5s1.8-1.6,3-2.4s2.7-1.5,4-2.3c1.3-0.7,2.8-1.5,4-2.2s1.8-1.4,3-2.1s2.7-1.4,4-2s2.7-1.3,4-2s2.8-1.3,4-2
	s1.8-1.3,3-1.9s2.7-1.2,4-1.8s2.7-1.2,4-1.8c1.3-0.6,2.8-1.1,4-1.6s1.8-1,3-1.5s2.7-1,4-1.5s2.7-0.9,4-1.4c1.3-0.4,2.8-0.9,4-1.3
	s1.8-0.8,3-1.2s2.7-0.7,4-1s2.8-0.6,4-1c1.2-0.3,1.8-0.6,3-1c1.2-0.3,2.7-0.6,4-1s2.7-0.7,4-1s2.8-0.7,4-1s1.8-0.7,3-1s2.7-0.6,4-1
	c1.3-0.3,2.7-0.7,4-1s2.8-0.6,4-1s1.8-0.6,3-1s2.7-0.6,4-1s2.7-0.6,4-1c1.3-0.3,2.8-0.6,4-1c1.2-0.3,1.8-0.6,3-0.9s4-0.9,4-0.9"/>
<path id="Italy" class="st2" d="M40,571.4c0,0,2.8-0.4,4-0.7s1.8-0.4,3-0.7s2.7-0.6,4-0.9s2.7-0.6,4-1c1.3-0.3,2.8-0.7,4-1
	s1.8-0.6,3-0.8s2.7-0.4,4-0.7s2.7-0.6,4-0.9s2.8-0.7,4-1s1.8-0.5,3-0.8s2.7-0.6,4-0.9c1.3-0.3,2.7-0.5,4-0.8c1.3-0.2,2.8-0.4,4-0.6
	s1.8-0.4,3-0.7s2.7-0.6,4-0.9s2.8-0.6,4-1s1.8-0.7,3-1.1c1.2-0.3,2.7-0.7,4-1c1.3-0.4,2.7-0.7,4-1.1c1.3-0.4,2.8-0.9,4-1.4
	s1.8-1,3-1.5s2.7-1,4-1.4s2.7-0.8,4-1.3s2.8-0.9,4-1.3c1.2-0.4,1.8-0.9,3-1.4s2.7-0.9,4-1.3c1.3-0.5,2.7-0.9,4-1.4s2.8-1,4-1.5
	s1.8-1.1,3-1.5s2.7-0.6,4-0.7c1.3-0.1,2.8-0.1,4,0s1.8,0.1,3,0.4c1.2,0.2,2.7,0.7,4,1s2.7,0.7,4,0.6c1.3-0.1,2.8-0.5,4-1
	s1.8-1.4,3-2.1s2.7-1.4,4-2.2s2.7-1.5,4-2.2s2.8-1.5,4-2.2s1.8-1.4,3-2.2c1.2-0.7,2.7-1.5,4-2.2s2.7-1.5,4-2.2s2.8-1.4,4-2.1
	c1.2-0.7,1.8-1.3,3-2s2.7-1.5,4-2.2s2.8-1.5,4-2.2s1.8-1.2,3-1.8s2.7-1.2,4-1.8s2.7-1.2,4-1.8s2.8-1.2,4-1.8c1.2-0.6,1.8-1.2,3-1.8
	c1.2-0.6,2.7-1.1,4-1.6s2.7-1,4-1.5s2.8-1,4-1.6s1.8-1.3,3-1.9s2.7-1.2,4-1.7c1.3-0.4,2.7-0.7,4-0.9s2.8-0.3,4-0.5
	c1.2-0.2,1.8-0.4,3-0.6s2.7-0.2,4-0.5s2.8-0.8,4-1.4s1.8-1.4,3-2.1s2.7-1.4,4-2.1s2.7-1.5,4-2.2s2.8-1.3,4-1.9s1.8-1.1,3-1.6
	s2.7-1,4-1.5s2.7-0.9,4-1.4s2.8-1.2,4-1.8s1.8-1.3,3-1.9s2.7-1.1,4-1.8s2.7-1.5,4-2.2s2.8-1.6,4-2.4s1.8-1.7,3-2.6s2.7-1.9,4-2.9
	s2.8-2,4-3.1s1.8-2.1,3-3.3s2.7-2.2,4-3.5c1.3-1.2,2.7-2.6,4-3.9s2.8-2.8,4-4.1c1.2-1.4,1.8-2.7,3-4s2.7-2.7,4-4s2.7-2.6,4-3.9
	s2.8-2.6,4-3.8c1.2-1.3,1.8-2.6,3-3.8s2.7-2.4,4-3.6s2.7-2.5,4-3.7s2.8-2.3,4-3.5s1.8-2.4,3-3.5s2.7-2.3,4-3.3s2.8-2,4-2.9
	s1.8-1.7,3-2.5s2.7-1.5,4-2.2s2.7-1.3,4-1.8s2.8-1,4-1.5s1.8-0.8,3-1.2c1.2-0.4,2.7-0.8,4-1.1c1.3-0.4,2.7-0.7,4-1s2.8-0.5,4-0.7
	s1.8-0.5,3-0.7s2.7-0.3,4-0.5c1.3-0.1,2.7-0.2,4-0.3c1.3-0.1,2.8-0.2,4-0.3c1.2-0.1,1.8-0.2,3-0.3s2.7-0.1,4-0.2s2.8-0.2,4-0.2
	s1.8-0.1,3-0.1s2.7-0.1,4,0c1.3,0,2.7,0.2,4,0.2s2.8,0.1,4,0.2s1.8,0.2,3,0.3s2.7,0.1,4,0.2s2.7,0.1,4,0.2c1.3,0,2.8,0,4,0.1
	c1.2,0,1.8,0,3,0s2.7,0,4,0s2.7,0,4,0s2.8,0,4,0s1.8-0.1,3-0.2s2.7-0.2,4-0.3c1.3-0.1,2.8-0.2,4-0.4s1.8-0.3,3-0.6s2.7-0.5,4-0.7
	s2.7-0.5,4-0.8s2.8-0.6,4-0.8c1.2-0.2,1.8-0.4,3-0.7s2.7-0.5,4-0.7s2.7-0.4,4-0.6s2.8-0.4,4-0.5s1.8-0.3,3-0.4s2.7-0.2,4-0.3
	s2.7-0.2,4-0.2c1.3-0.1,2.8-0.1,4-0.1s1.8,0.1,3,0.2s2.7,0.2,4,0.3s2.8,0.2,4,0.2c1.2,0.1,1.8,0.2,3,0.3c1.2,0.1,2.7,0.1,4,0.2
	s2.7,0.2,4,0.3c1.3,0.1,2.8,0.1,4,0.1c1.2,0.1,1.8,0.2,3,0.2s2.7,0,4,0.1s2.7,0,4,0.1c1.3,0,2.8,0.1,4,0.1s1.8,0.1,3,0.1
	s2.7,0,4,0.1c1.3,0,2.7,0,4,0s2.8,0,4-0.1s1.8-0.1,3-0.1s4-0.1,4-0.1"/>
<path id="Japan" class="st3" d="M40,590.6c0,0,2.8-0.1,4-0.2c1.2-0.1,1.8-0.3,3-0.4s2.7-0.3,4-0.5s2.7-0.5,4-0.7s2.8-0.5,4-0.7
	s1.8-0.4,3-0.5c1.2-0.2,2.7-0.3,4-0.4s2.7-0.3,4-0.5s2.8-0.4,4-0.7c1.2-0.2,1.8-0.4,3-0.7c1.2-0.2,2.7-0.4,4-0.7
	c1.3-0.2,2.7-0.5,4-0.7s2.8-0.5,4-0.7s1.8-0.6,3-0.8s2.7-0.5,4-0.8s2.8-0.6,4-1s1.8-0.8,3-1.1c1.2-0.4,2.7-0.7,4-1s2.7-0.6,4-0.8
	s2.8-0.5,4-0.7s1.8-0.4,3-0.7s2.7-0.6,4-1c1.3-0.3,2.7-0.7,4-1.1s2.8-0.8,4-1.1s1.8-0.8,3-1.2s2.7-0.8,4-1.3s2.7-1,4-1.5
	s2.8-1,4-1.5s1.8-1,3-1.6c1.2-0.5,2.7-1,4-1.5s2.8-1,4-1.5s1.8-1,3-1.5s2.7-0.9,4-1.4s2.7-0.9,4-1.4s2.8-1.1,4-1.7
	c1.2-0.6,1.8-1.2,3-1.9s2.7-1.3,4-2s2.7-1.4,4-2.1c1.3-0.8,2.8-1.6,4-2.4s1.8-1.8,3-2.8s2.7-2,4-3s2.7-2.1,4-3.1s2.8-2,4-3.1
	s1.8-2.1,3-3.1s2.7-2.1,4-3.1c1.3-1.1,2.8-2.1,4-3.3c1.2-1.1,1.8-2.3,3-3.4s2.7-2.3,4-3.4c1.3-1.1,2.7-2.2,4-3.4
	c1.3-1.1,2.8-2.3,4-3.5s1.8-2.5,3-3.7s2.7-2.5,4-3.6s2.7-2.2,4-3.3s2.8-1.9,4-2.9s1.8-2.1,3-3.3c1.2-1.2,2.7-2.6,4-3.9
	s2.7-2.8,4-4.1c1.3-1.3,2.8-2.6,4-3.8c1.2-1.2,1.8-2.5,3-3.5s2.7-1.8,4-2.6s2.8-1.2,4-2.3s1.8-2.4,3-4s2.7-3.7,4-5.6s2.7-3.9,4-5.7
	c1.3-1.7,2.8-3.4,4-4.8s1.8-2.6,3-3.7s2.7-2.1,4-3.1s2.7-1.8,4-2.6c1.3-0.8,2.8-1.6,4-2.3c1.2-0.7,1.8-1.3,3-1.8s2.7-0.9,4-1.2
	s2.7-0.6,4-0.8s2.8-0.6,4-0.9s1.8-0.7,3-1s2.7-0.6,4-0.9s2.8-0.6,4-0.9s1.8-0.6,3-0.9s2.7-0.7,4-1.2c1.3-0.4,2.7-0.9,4-1.4
	s2.8-1.2,4-1.6s1.8-0.5,3-0.9c1.2-0.3,2.7-0.6,4-1.2s2.7-1.5,4-2.2s2.8-1.4,4-2.1s1.8-1.4,3-2.2c1.2-0.8,2.7-1.6,4-2.5
	s2.7-1.8,4-2.8s2.8-2.1,4-3.1s1.8-2.2,3-3.2s2.7-1.9,4-2.8s2.8-1.7,4-2.4c1.2-0.7,1.8-1.4,3-2s2.7-1.2,4-1.8s2.7-1.1,4-1.5
	s2.8-0.9,4-1.3s1.8-0.7,3-1s2.7-0.6,4-0.9s2.7-0.6,4-0.9s2.8-0.6,4-0.9s1.8-0.6,3-0.9s2.7-0.5,4-0.7s2.7-0.4,4-0.7
	c1.3-0.2,2.8-0.5,4-0.7s1.8-0.4,3-0.6s2.7-0.3,4-0.4s2.8-0.2,4-0.3c1.2-0.1,1.8-0.2,3-0.3c1.2-0.1,2.7-0.2,4-0.3
	c1.3-0.1,2.7-0.2,4-0.4s2.8-0.3,4-0.4s1.8-0.2,3-0.3s2.7-0.2,4-0.4s2.7-0.3,4-0.4s2.8-0.2,4-0.3c1.2-0.1,1.8-0.2,3-0.4
	c1.2-0.1,2.7-0.3,4-0.4s2.7-0.2,4-0.2s2.8-0.1,4-0.1s1.8,0,3,0s2.7,0.1,4,0.1s2.8,0.1,4,0.1s1.8,0,3-0.1c1.2,0,2.7-0.1,4-0.2
	s2.7-0.1,4-0.2s2.8-0.1,4-0.2s1.8-0.1,3-0.2s2.7-0.1,4-0.2s2.7-0.2,4-0.3s2.8-0.2,4-0.3c1.2-0.1,1.8-0.2,3-0.3s2.7-0.2,4-0.3
	c1.3-0.1,2.7-0.1,4-0.1s2.8,0.1,4,0.2s1.8,0.2,3,0.3s2.7,0.3,4,0.4s2.8,0.2,4,0.3s1.8,0.2,3,0.3c1.2,0.1,2.7,0.2,4,0.2
	c1.3,0.1,2.7,0.1,4,0.2s2.8,0.2,4,0.2s1.8,0.1,3,0.1s2.7,0,4,0.1c1.3,0,2.7,0.1,4,0.1s2.8,0,4,0s1.8,0,3,0s2.7,0,4,0s2.7,0,4-0.1
	s2.8-0.1,4-0.1s1.8-0.1,3-0.2c1.2,0,4-0.1,4-0.1"/>
<path id="Korea" class="st4" d="M40,603.6c0,0,2.8,0.2,4,0.2s1.8-0.1,3-0.2s2.7-0.3,4-0.4c1.3-0.2,2.7-0.3,4-0.5s2.8-0.4,4-0.6
	c1.2-0.2,1.8-0.4,3-0.5s2.7-0.2,4-0.3s2.7-0.3,4-0.4s2.8-0.3,4-0.4c1.2-0.1,1.8-0.1,3-0.2s2.7-0.2,4-0.3s2.7-0.1,4-0.1s2.8,0,4,0.1
	s1.8,0,3,0.1s2.7,0.2,4,0.2s2.8-0.1,4-0.2c1.2-0.1,1.8-0.3,3-0.4c1.2-0.1,2.7-0.1,4-0.2s2.7-0.1,4-0.1c1.3-0.1,2.8-0.1,4-0.2
	c1.2-0.1,1.8-0.3,3-0.4s2.7-0.2,4-0.3s2.7-0.2,4-0.2c1.3-0.1,2.8-0.1,4-0.1s1.8-0.1,3-0.1s2.7,0,4-0.1s2.7-0.1,4-0.2
	c1.3-0.1,2.8-0.1,4-0.2c1.2-0.1,1.8-0.2,3-0.2c1.2-0.1,2.7-0.2,4-0.3s2.8-0.4,4-0.6c1.2-0.2,1.8-0.4,3-0.6c1.2-0.2,2.7-0.3,4-0.5
	s2.7-0.2,4-0.4c1.3-0.1,2.8-0.3,4-0.5s1.8-0.5,3-0.8s2.7-0.5,4-0.8s2.7-0.5,4-0.7c1.3-0.3,2.8-0.6,4-0.9c1.2-0.3,1.8-0.5,3-0.8
	s2.7-0.6,4-0.9c1.3-0.3,2.7-0.7,4-1s2.8-0.7,4-1.1s1.8-0.8,3-1.2s2.7-0.8,4-1.2s2.8-0.8,4-1.2c1.2-0.5,1.8-0.9,3-1.5s2.7-1.1,4-1.6
	c1.3-0.6,2.7-1.1,4-1.7s2.8-1.3,4-2s1.8-1.4,3-2.1c1.2-0.7,2.7-1.5,4-2.3s2.7-1.6,4-2.3c1.3-0.8,2.8-1.6,4-2.4s1.8-1.6,3-2.4
	c1.2-0.8,2.7-1.7,4-2.6s2.7-1.7,4-2.5s2.8-1.6,4-2.4c1.2-0.8,1.8-1.5,3-2.3s2.7-1.5,4-2.2s2.8-1.4,4-2.1s1.8-1.3,3-2s2.7-1.5,4-2.3
	s2.7-1.7,4-2.5s2.8-1.7,4-2.5s1.8-1.5,3-2.4s2.7-2,4-3.1s2.7-2.3,4-3.5s2.8-2.3,4-3.7s1.8-3,3-4.6s2.7-3.3,4-4.9s2.7-3.3,4-5
	s2.8-3.5,4-5.3s1.8-3.6,3-5.6s2.7-4.1,4-6.2s2.8-4.4,4-6.5s1.8-4.1,3-6s2.7-3.7,4-5.4c1.3-1.7,2.7-3.3,4-4.9c1.3-1.7,2.8-3.3,4-5
	c1.2-1.6,1.8-3.3,3-4.9s2.7-3.3,4-5s2.7-3.5,4-5.3s2.8-3.8,4-5.6s1.8-3.7,3-5.6s2.7-3.7,4-5.6s2.7-3.6,4-5.4c1.3-1.7,2.8-3.3,4-5
	c1.2-1.6,1.8-3.3,3-4.8s2.7-2.9,4-4.2s2.8-2.4,4-3.6s1.8-2.3,3-3.4s2.7-2.2,4-3.4c1.3-1.2,2.7-2.3,4-3.6c1.3-1.3,2.8-2.7,4-4.1
	s1.8-2.9,3-4.3s2.7-2.7,4-4s2.7-2.5,4-3.6s2.8-1.9,4-2.8s1.8-1.6,3-2.3c1.2-0.7,2.7-1.3,4-2s2.7-1.3,4-1.9s2.8-1.2,4-1.9
	s1.8-1.2,3-1.9c1.2-0.7,2.7-1.4,4-2.2s2.8-1.6,4-2.5s1.8-2,3-3s2.7-2.1,4-3.2s2.7-2.2,4-3.3c1.3-1.1,2.8-2.2,4-3.2s1.8-2.2,3-3.2
	s2.7-2,4-3s2.7-1.9,4-2.8s2.8-1.6,4-2.4s1.8-1.6,3-2.3c1.2-0.7,2.7-1.5,4-2s2.7-0.8,4-1s2.8-0.3,4-0.4s1.8-0.2,3-0.2s2.7,0,4,0
	s2.8,0.1,4,0.1s1.8-0.1,3-0.3s2.7-0.4,4-0.6s2.7-0.2,4-0.4s2.8-0.3,4-0.5s1.8-0.5,3-0.8s2.7-0.7,4-1s2.7-0.6,4-0.9s2.8-0.5,4-0.7
	s1.8-0.4,3-0.6s2.7-0.4,4-0.5s2.7-0.1,4,0s2.8,0.3,4,0.6c1.2,0.3,1.8,0.7,3,1.1s2.7,0.9,4,1.4s2.8,1,4,1.6c1.2,0.5,1.8,1.1,3,1.6
	s2.7,1,4,1.5s2.7,1.1,4,1.5c1.3,0.5,2.8,0.9,4,1.3s1.8,0.8,3,1.2s2.7,0.7,4,1s2.7,0.6,4,0.9s2.8,0.5,4,0.8s1.8,0.5,3,0.7
	s2.7,0.5,4,0.7s2.7,0.4,4,0.5s2.8,0.4,4,0.6s1.8,0.4,3,0.6s4,0.7,4,0.7"/>
<path id="Nigeria" class="st5" d="M40,602c0,0,2.8-0.1,4-0.2c1.2-0.1,1.8-0.1,3-0.2c1.2-0.1,2.7-0.2,4-0.3s2.7-0.1,4-0.2
	s2.8-0.1,4-0.2c1.2-0.1,1.8-0.2,3-0.2c1.2-0.1,2.7-0.2,4-0.2c1.3-0.1,2.7-0.1,4-0.1s2.8-0.1,4-0.2c1.2,0,1.8-0.1,3-0.1
	s2.7-0.1,4-0.1s2.7,0,4-0.1c1.3,0,2.8-0.1,4-0.1s1.8,0,3,0s2.7,0,4,0s2.8,0,4,0.1c1.2,0,1.8,0.1,3,0.1s2.7,0.1,4,0.1s2.7,0.1,4,0.1
	s2.8,0.1,4,0.1s1.8,0.1,3,0.1s2.7,0,4,0s2.7,0.1,4,0.1s2.8,0,4,0s1.8,0,3,0.1s2.7,0,4,0.1s2.7,0,4,0s2.8,0,4,0s1.8,0,3,0s2.7,0,4,0
	s2.8,0,4,0s1.8,0,3,0s2.7,0,4,0s2.7,0,4,0s2.8,0,4,0s1.8,0,3,0s2.7,0,4,0s2.7,0,4,0s2.8,0,4,0s1.8,0,3,0s2.7,0,4,0s2.7,0,4,0
	s2.8,0,4,0s1.8,0,3,0.1s2.7,0.1,4,0.1s2.8,0,4,0.1c1.2,0,1.8,0,3,0.1s2.7,0.1,4,0.1s2.7,0,4,0s2.8,0.1,4,0.1s1.8,0,3,0s2.7,0,4,0
	s2.7,0,4,0s2.8,0,4,0s1.8,0,3,0s2.7,0,4,0s2.7,0,4,0s2.8,0,4,0c1.2,0,1.8,0,3,0s2.7,0,4,0s2.8,0,4,0s1.8,0,3,0s2.7,0,4,0.1
	c1.3,0,2.7,0.1,4,0.1s2.8,0.1,4,0.1s1.8,0,3,0s2.7,0,4,0s2.7,0,4,0s2.8,0,4,0s1.8,0,3,0s2.7,0.1,4,0.1s2.7,0,4,0s2.8,0,4-0.1
	s1.8,0,3-0.1c1.2,0,2.7-0.1,4-0.1s2.8-0.1,4-0.1s1.8-0.1,3-0.1s2.7-0.1,4-0.1s2.7-0.1,4-0.1s2.8-0.1,4-0.1s1.8-0.1,3-0.1
	s2.7-0.1,4-0.1c1.3-0.1,2.7-0.1,4-0.2c1.3-0.1,2.8-0.1,4-0.2s1.8-0.1,3-0.2s2.7-0.2,4-0.2c1.3-0.1,2.7-0.2,4-0.3s2.8-0.2,4-0.3
	s1.8-0.2,3-0.3s2.7-0.2,4-0.4s2.8-0.3,4-0.4c1.2-0.1,1.8-0.3,3-0.4s2.7-0.3,4-0.5s2.7-0.3,4-0.5s2.8-0.3,4-0.5s1.8-0.3,3-0.5
	s2.7-0.3,4-0.5s2.7-0.3,4-0.5s2.8-0.3,4-0.5s1.8-0.3,3-0.4s2.7-0.3,4-0.4s2.7-0.3,4-0.4c1.3-0.1,2.8-0.2,4-0.4
	c1.2-0.1,1.8-0.3,3-0.4s2.7-0.3,4-0.4s2.8-0.3,4-0.4s1.8-0.3,3-0.4c1.2-0.2,2.7-0.3,4-0.5s2.7-0.3,4-0.5s2.8-0.4,4-0.5
	c1.2-0.2,1.8-0.4,3-0.6c1.2-0.2,2.7-0.4,4-0.6s2.7-0.4,4-0.6c1.3-0.2,2.8-0.4,4-0.7s1.8-0.5,3-0.7c1.2-0.3,2.7-0.5,4-0.8
	s2.7-0.6,4-0.9c1.3-0.3,2.8-0.6,4-0.9s1.8-0.6,3-1s2.7-0.7,4-1s2.8-0.7,4-1.1s1.8-0.7,3-1.1s2.7-0.7,4-1.1s2.7-0.8,4-1.2
	s2.8-0.8,4-1.2s1.8-0.8,3-1.2s2.7-0.8,4-1.2s2.7-0.8,4-1.2s2.8-0.8,4-1.2s1.8-0.8,3-1.2s2.7-0.8,4-1.2s2.7-0.8,4-1.2s2.8-0.8,4-1.2
	s1.8-0.8,3-1.2s2.7-0.8,4-1.2s2.8-0.8,4-1.2s1.8-0.8,3-1.2s2.7-0.8,4-1.2s2.7-0.8,4-1.2s2.8-0.8,4-1.2s1.8-0.8,3-1.2s2.7-0.8,4-1.2
	s2.7-0.8,4-1.2s2.8-0.8,4-1.3c1.2-0.4,1.8-0.8,3-1.3c1.2-0.4,2.7-0.8,4-1.2s2.7-0.8,4-1.2s2.8-0.8,4-1.2s1.8-0.8,3-1.2s4-1.2,4-1.2"
	/>
<path id="USA" class="st6" d="M40,570.9c0,0,2.8-0.6,4-0.9c1.2-0.3,1.8-0.6,3-0.8s2.7-0.5,4-0.8s2.7-0.5,4-0.8
	c1.3-0.2,2.8-0.5,4-0.7s1.8-0.5,3-0.6c1.2-0.2,2.7-0.3,4-0.5c1.3-0.1,2.7-0.1,4-0.2s2.8-0.2,4-0.4s1.8-0.4,3-0.6
	c1.2-0.2,2.7-0.3,4-0.5c1.3-0.1,2.7-0.2,4-0.4s2.8-0.3,4-0.5s1.8-0.3,3-0.4s2.7-0.1,4-0.2c1.3-0.1,2.8-0.1,4-0.2s1.8-0.3,3-0.4
	c1.2-0.1,2.7-0.3,4-0.4c1.3-0.1,2.7-0.1,4-0.1c1.3-0.1,2.8-0.3,4-0.4s1.8-0.3,3-0.5s2.7-0.3,4-0.6s2.7-0.5,4-0.8s2.8-0.6,4-0.9
	s1.8-0.7,3-1.1c1.2-0.4,2.7-0.8,4-1.3c1.3-0.4,2.7-0.9,4-1.3s2.8-0.7,4-1s1.8-0.6,3-0.8s2.7-0.4,4-0.6c1.3-0.2,2.8-0.4,4-0.6
	c1.2-0.2,1.8-0.4,3-0.6c1.2-0.2,2.7-0.2,4-0.4s2.7-0.4,4-0.7s2.8-0.6,4-0.9s1.8-0.4,3-0.6c1.2-0.2,2.7-0.3,4-0.5s2.7-0.6,4-0.9
	c1.3-0.3,2.8-0.6,4-0.7s1.8,0,3-0.1s2.7-0.1,4-0.3s2.7-0.3,4-0.4s2.8-0.1,4-0.2c1.2-0.1,1.8-0.2,3-0.3s2.7-0.3,4-0.4s2.8-0.1,4,0
	c1.2,0,1.8,0.1,3,0.2s2.7,0.2,4,0.3s2.7,0.3,4,0.4c1.3,0.1,2.8,0.4,4,0.5s1.8,0.1,3,0.1s2.7,0,4,0.1c1.3,0,2.7,0.1,4,0.1
	s2.8-0.1,4-0.2c1.2-0.1,1.8-0.2,3-0.3s2.7-0.2,4-0.4c1.3-0.1,2.7-0.3,4-0.5s2.8-0.6,4-1c1.2-0.4,1.8-0.8,3-1.1c1.2-0.4,2.7-0.6,4-1
	s2.8-0.9,4-1.5s1.8-1.3,3-1.9s2.7-1.3,4-1.8c1.3-0.6,2.7-1,4-1.5c1.3-0.4,2.8-0.6,4-1.2c1.2-0.5,1.8-1.3,3-2.1s2.7-1.6,4-2.4
	s2.7-1.3,4-2s2.8-1.5,4-2.4c1.2-0.8,1.8-1.7,3-2.6s2.7-1.8,4-2.7s2.7-1.8,4-2.7s2.8-1.8,4-2.8s1.8-1.9,3-2.9c1.2-1,2.7-1.9,4-2.9
	c1.3-0.9,2.8-1.9,4-2.8s1.8-1.7,3-2.5s2.7-1.6,4-2.3s2.7-1.6,4-2.3s2.8-1.4,4-2.1s1.8-1.2,3-1.7s2.7-0.9,4-1.4
	c1.3-0.4,2.7-0.8,4-1.3s2.8-0.9,4-1.4s1.8-1,3-1.5s2.7-1,4-1.4s2.7-0.7,4-1s2.8-0.4,4-0.6s1.8-0.4,3-0.6s2.7-0.4,4-0.5
	s2.8-0.3,4-0.5s1.8-0.3,3-0.5s2.7-0.3,4-0.5s2.7-0.4,4-0.7s2.8-0.6,4-0.8c1.2-0.3,1.8-0.6,3-0.9s2.7-0.6,4-0.8s2.7-0.5,4-0.8
	s2.8-0.5,4-0.8s1.8-0.6,3-0.9s2.7-0.6,4-0.9s2.7-0.6,4-0.9s2.8-0.6,4-1s1.8-0.7,3-1.1s2.7-0.8,4-1.3c1.3-0.4,2.8-0.9,4-1.4
	s1.8-0.9,3-1.3s2.7-0.8,4-1.2s2.7-0.8,4-1.1c1.3-0.4,2.8-0.7,4-1.1c1.2-0.3,1.8-0.7,3-1s2.7-0.7,4-1s2.7-0.7,4-1
	c1.3-0.4,2.8-0.7,4-1.1s1.8-0.8,3-1.2s2.7-0.8,4-1.3s2.7-0.8,4-1.2c1.3-0.4,2.8-0.8,4-1.3s1.8-0.9,3-1.3s2.7-0.9,4-1.3
	s2.8-0.9,4-1.4s1.8-1,3-1.5s2.7-1,4-1.4s2.7-0.9,4-1.2c1.3-0.4,2.8-0.7,4-1.1s1.8-0.6,3-0.9s2.7-0.6,4-0.9s2.7-0.5,4-0.8
	s2.8-0.5,4-0.8s1.8-0.5,3-0.8s2.7-0.5,4-0.7s2.7-0.4,4-0.6s2.8-0.3,4-0.5c1.2-0.1,1.8-0.3,3-0.4s2.7-0.2,4-0.2
	c1.3-0.1,2.8-0.1,4-0.2s1.8-0.1,3-0.2s2.7-0.1,4-0.2s2.7-0.2,4-0.2c1.3-0.1,2.8-0.2,4-0.3c1.2-0.1,1.8-0.2,3-0.3s2.7-0.2,4-0.3
	s2.7-0.2,4-0.3s2.8-0.2,4-0.3c1.2-0.1,1.8-0.2,3-0.4c1.2-0.1,2.7-0.2,4-0.4s2.7-0.3,4-0.4s2.8-0.3,4-0.4s1.8-0.3,3-0.4s4-0.5,4-0.5"
	/>
<g>
	<text transform="matrix(1 0 0 1 566.4526 368.9998)" class="st7 st8">China</text>
</g>
<g>
	<text transform="matrix(1 0 0 1 582.8318 456.3515)" class="st7 st8">India</text>
</g>
<g>
	<text transform="matrix(1 0 0 1 600.5128 395.9989)" class="st7 st8">Italy</text>
</g>
<g>
	<text transform="matrix(1 0 0 1 566.1428 383.7787)" class="st7 st8">Japan</text>
</g>
<g>
	<text transform="matrix(1 0 0 1 563.1903 341.3527)" class="st7 st8">S.Korea</text>
</g>
<g>
	<text transform="matrix(1 0 0 1 576.0967 542.3427)" class="st7 st8">Nigeria</text>
</g>
<text transform="matrix(1 0 0 1 553.0342 411.5844)" class="st9 st7 st10">Taiwan</text>
<g>
	<text transform="matrix(1 0 0 1 575.0698 434.017)" class="st7 st8">USA</text>
</g>
<path id="Taiwan" class="st11" d="M40,607.4c0,0,2.8,0,4,0s1.8,0,3,0s2.7,0.1,4,0.1s2.7,0.1,4,0.1s2.8,0.1,4,0s1.8,0,3-0.1
	c1.2,0,2.7-0.2,4-0.2s2.7,0.1,4,0.1s2.8-0.1,4-0.2s1.8,0,3,0s2.7-0.1,4-0.1s2.7,0,4,0s2.8-0.1,4-0.1c1.2-0.1,1.8-0.1,3-0.2
	c1.2-0.1,2.7-0.1,4-0.2s2.8-0.3,4-0.5c1.2-0.1,1.8-0.2,3-0.4c1.2-0.1,2.7-0.3,4-0.4s2.7-0.4,4-0.6c1.3-0.2,2.8-0.3,4-0.5
	s1.8-0.3,3-0.5s2.7-0.5,4-0.7s2.7-0.3,4-0.5s2.8-0.4,4-0.6c1.2-0.2,1.8-0.5,3-0.8s2.7-0.6,4-0.9s2.7-0.7,4-1.1c1.3-0.4,2.8-0.7,4-1
	s1.8-0.7,3-1c1.2-0.4,2.7-0.8,4-1.2s2.8-0.7,4-1s1.8-0.7,3-1s2.7-0.5,4-0.9s2.7-0.8,4-1.1c1.3-0.4,2.8-0.7,4-1.1s1.8-0.7,3-1.1
	s2.7-1,4-1.5s2.7-0.8,4-1.3s2.8-1.2,4-1.8s1.8-1.1,3-1.6c1.2-0.6,2.7-1.2,4-1.8s2.7-1.1,4-1.6s2.8-1.1,4-1.7s1.8-1,3-1.5
	s2.7-1.1,4-1.5c1.3-0.5,2.8-0.8,4-1.2s1.8-0.8,3-1.2s2.7-0.7,4-1.1s2.7-0.7,4-1s2.8-0.7,4-1.1s1.8-0.7,3-1.1s2.7-0.8,4-1.1
	s2.7-0.7,4-1.1c1.3-0.4,2.8-0.8,4-1.1s1.8-0.7,3-1.1c1.2-0.4,2.7-0.7,4-1.1c1.3-0.4,2.7-0.9,4-1.4c1.3-0.4,2.8-0.8,4-1.2
	c1.2-0.4,1.8-1,3-1.5s2.7-1,4-1.6c1.3-0.5,2.8-1,4-1.5s1.8-1,3-1.5s2.7-1,4-1.7c1.3-0.6,2.7-1.4,4-2.2s2.8-1.5,4-2.3
	c1.2-0.9,1.8-1.9,3-3s2.7-2.3,4-3.6s2.7-2.5,4-3.9s2.8-2.9,4-4.4s1.8-3,3-4.5s2.7-3,4-4.5s2.7-3,4-4.5s2.8-3,4-4.5s1.8-3,3-4.5
	s2.7-2.9,4-4.4s2.8-3,4-4.5s1.8-3,3-4.6c1.2-1.5,2.7-3,4-4.5s2.7-3.1,4-4.6s2.8-2.9,4-4.4s1.8-2.9,3-4.3s2.7-2.8,4-4.1
	s2.7-2.8,4-4.1s2.8-2.6,4-3.8s1.8-2.4,3-3.6s2.7-2.3,4-3.4s2.7-2.1,4-3.2s2.8-2.2,4-3.2c1.2-1.1,1.8-2.1,3-3.2s2.7-2.2,4-3.4
	c1.3-1.2,2.8-2.4,4-3.8s1.8-2.7,3-4.1s2.7-2.8,4-4.3s2.7-3,4-4.4s2.8-2.9,4-4.3s1.8-2.8,3-4.2c1.2-1.4,2.7-2.8,4-4.1
	c1.3-1.3,2.7-2.5,4-3.7s2.8-2.4,4-3.4s1.8-2.1,3-3s2.7-1.8,4-2.7c1.3-0.8,2.7-1.6,4-2.3s2.8-1.3,4-2c1.2-0.6,1.8-1.3,3-1.9
	s2.7-1.2,4-1.8s2.8-1.3,4-1.9s1.8-1.2,3-1.9c1.2-0.7,2.7-1.4,4-2.1s2.7-1.3,4-2s2.8-1.5,4-2.1s1.8-1.3,3-1.9s2.7-1.3,4-1.9
	s2.7-1.2,4-1.7s2.8-0.9,4-1.3s1.8-0.9,3-1.2s2.7-0.5,4-0.7c1.3-0.1,2.7-0.2,4-0.1c1.3,0,2.8,0.2,4,0.3s1.8,0.3,3,0.5s2.7,0.4,4,0.7
	c1.3,0.3,2.8,0.8,4,1.1c1.2,0.4,1.8,0.7,3,1c1.2,0.4,2.7,0.8,4,1.3s2.7,1,4,1.5s2.8,0.8,4,1.3s1.8,0.9,3,1.3c1.2,0.3,2.7,0.6,4,0.7
	c1.3,0.2,2.7,0.2,4,0.3c1.3,0.1,2.8,0.3,4,0.4s1.8,0.2,3,0.3c1.2,0.1,2.7,0.2,4,0.3s2.7,0.3,4,0.5s2.8,0.5,4,0.8s1.8,0.4,3,0.6
	s2.7,0.7,4,0.9s2.8,0.5,4,0.7s1.8,0.5,3,0.8c1.2,0.2,2.7,0.4,4,0.6s2.7,0.4,4,0.5s2.8,0.4,4,0.5s1.8,0.2,3,0.2
	c1.2,0.1,2.7,0.2,4,0.2c1.3,0.1,2.7,0.1,4,0.2s2.8,0.2,4,0.2s1.8,0,3,0s2.7,0.1,4,0.1s2.7-0.1,4-0.1s2.8,0,4-0.1s1.8-0.2,3-0.2
	s4,0.3,4,0.3"/>
<g>
	<text transform="matrix(1 0 0 1 70 345)" class="st12"><tspan x="0" y="0" class="st13 st14">The Elderly Share </tspan><tspan x="0" y="24" class="st13 st14">(Ages 65+) of the </tspan><tspan x="0" y="48" class="st13 st14">Population</tspan></text>
</g>
<text transform="matrix(1 0 0 1 45 365)" class="st15 st16 st14">Italy</text>
<text transform="matrix(1 0 0 1 129 552.625)" class="st17 st16 st18">24.5%</text>
<text transform="matrix(1 0 0 1 45 365)" class="st15 st16 st14">Italy</text>
<text transform="matrix(1 0 0 1 129 552.625)" class="st17 st16 st18">24.5%</text>
<text transform="matrix(1 0 0 1 45 365)" class="st15 st16 st14">Italy</text>
<text transform="matrix(1 0 0 1 25.4385 623.7)" class="st7 st8">0</text>
<text transform="matrix(1 0 0 1 19.877 503.7)" class="st7 st8">20</text>
<text transform="matrix(1 0 0 1 19.877 383.7)" class="st7 st8">40</text>
<text transform="matrix(1 0 0 1 19.877 263.7)" class="st7 st8">60</text>
<text transform="matrix(1 0 0 1 19.877 143.7)" class="st7 st8">80</text>
<text transform="matrix(1 0 0 1 14.3154 23.7)" class="st7 st8">100</text>
<g>
	<text transform="matrix(1 0 0 1 59.377 636.1)" class="st7 st8">1960</text>
</g>
<g>
	<text transform="matrix(1 0 0 1 134.377 636.1)" class="st7 st8">1980</text>
</g>
<g>
	<text transform="matrix(1 0 0 1 209.377 636.1)" class="st7 st8">2000</text>
</g>
<g>
	<text transform="matrix(1 0 0 1 283.377 636.1)" class="st7 st8">2020</text>
</g>
<g>
	<text transform="matrix(1 0 0 1 358.377 636.1)" class="st7 st8">2040</text>
</g>
<g>
	<text transform="matrix(1 0 0 1 433.377 636.1)" class="st7 st8">2060</text>
</g>
<g>
	<text transform="matrix(1 0 0 1 507.377 636.1)" class="st7 st8">2080</text>
</g>
<g>
	<text transform="matrix(1 0 0 1 582.377 636.1)" class="st7 st8">2100</text>
</g>
</svg>
