<?xml version="1.0" encoding="utf-8"?>
<!-- Generator: Adobe Illustrator 27.9.0, SVG Export Plug-In . SVG Version: 6.00 Build 0)  -->
<svg version="1.1" id="svgRight" xmlns="http://www.w3.org/2000/svg" xmlns:xlink="http://www.w3.org/1999/xlink" x="0px" y="0px"
	 viewBox="0 0 650 650" style="enable-background:new 0 0 650 650;" xml:space="preserve">
<style type="text/css">
	.st0{font-family:'SourceSansPro-Semibold';}
	.st1{font-size:13px;}
	.st2{fill:#00A097;stroke:#FFFFFF;stroke-width:0.5;}
	.st3{fill:#5AC8C0;stroke:#FFFFFF;stroke-width:0.5;}
	.st4{fill:#A6D9D9;stroke:#FFFFFF;stroke-width:0.5;}
	.st5{fill:#3A9C96;}
	.st6{font-family:'SourceSansPro-Bold';}
	.st7{font-size:16px;}
	.st8{fill:#FFFFFF;}
	.st9{font-family:'Whitney-Semibold';}
	.st10{font-size:20px;}
</style>
<text transform="matrix(1 0 0 1 25.4385 623.7)" class="st0 st1">0</text>
<text transform="matrix(1 0 0 1 19.877 503.7)" class="st0 st1">20</text>
<text transform="matrix(1 0 0 1 19.877 383.7)" class="st0 st1">40</text>
<text transform="matrix(1 0 0 1 19.877 263.7)" class="st0 st1">60</text>
<text transform="matrix(1 0 0 1 19.877 143.7)" class="st0 st1">80</text>
<text transform="matrix(1 0 0 1 2.2363 23.7)" class="st0 st1">100%</text>
<path class="st2" d="M40,607.7h4h3l4,0.1l4,0.1h4l3-0.1l4-0.2l4,0.1l4-0.2h3l4-0.1h4l4-0.1l3-0.2l4-0.2l4-0.5l3-0.4l4-0.4l4-0.6
	l4-0.5l3-0.5l4-0.7l4-0.5l4-0.6l3-0.8l4-0.9l4-1.1l4-1l3-1l4-1.2l4-1l3-1l4-0.9l4-1.1l4-1.1l3-1.1l4-1.5l4-1.3l4-1.8l3-1.6l4-1.8
	l4-1.6l4-1.7l3-1.5l4-1.5l4-1.2l3-1.2l4-1.1l4-1l4-1.1l3-1.1l4-1.1l4-1.1l4-1.1l3-1.1l4-1.1l4-1.4l4-1.2l3-1.5l4-1.6l4-1.5l3-1.5
	l4-1.7l4-2.2l4-2.3l3-3l4-3.6l4-3.9l4-4.4l3-4.5l4-4.5l4-4.5l4-4.5l3-4.5l4-4.4l4-4.5l3-4.6l4-4.5l4-4.6l4-4.4l3-4.3l4-4.1l4-4.1
	l4-3.8l3-3.6l4-3.4l4-3.2l4-3.2l3-3.2l4-3.4l4-3.8l3-4.1l4-4.3l4-4.4l4-4.3l3-4.2l4-4.1l4-3.7l4-3.4l3-3l4-2.7l4-2.3l4-2l3-1.9
	l4-1.8l4-1.9l3-1.9l4-2.1l4-2l4-2.1l3-1.9l4-1.9l4-1.7l4-1.3l3-1.2l4-0.7l4-0.1l4,0.3l3,0.5l4,0.7l4,1.1l3,1l4,1.3l4,1.5l4,1.3
	l3,1.3l4,0.7l4,0.3l4,0.4l3,0.3l4,0.3l4,0.5l4,0.8l3,0.6l4,0.9l4,0.7l3,0.8l4,0.6l4,0.5l4,0.5l3,0.2l4,0.2l4,0.2l4,0.2h3l4,0.1
	l4-0.1l4-0.1l3-0.2l4,0.3v223.5h-4h-3h-4h-4h-4h-3h-4h-4h-4h-3h-4h-4h-4h-3h-4h-4h-3h-4h-4h-4h-3h-4h-4h-4h-3h-4h-4h-4h-3h-4h-4h-3
	h-4h-4h-4h-3h-4h-4h-4h-3h-4h-4h-4h-3h-4h-4h-3h-4h-4h-4h-3h-4h-4h-4h-3h-4h-4h-4h-3h-4h-4h-3h-4h-4h-4h-3h-4h-4h-4h-3h-4h-4h-4h-3
	h-4h-4h-3h-4h-4h-4h-3h-4h-4h-4h-3h-4h-4h-4h-3h-4h-4h-3h-4h-4h-4h-3h-4h-4h-4h-3h-4h-4h-4h-3h-4h-4h-3h-4h-4h-4h-3h-4h-4h-4h-3h-4
	h-4h-4h-3h-4h-4h-3h-4h-4h-4h-3h-4h-4h-4h-3h-4h-4h-4h-3h-4h-4h-3h-4h-4h-4h-3h-4h-4h-4h-3h-4h-4h-4h-3h-4V607.7z"/>
<path class="st3" d="M40,273.5l4,0.9l3,1l4,1.7l4,2.4l4,2.4l3,2.5l4,2.6l4,2.3l4,1.9l3,1.4l4,0.7l4,0.5l4-0.5l3-1l4-2.1l4-3.3l3-3.6
	l4-3.8l4-4.4l4-4.6l3-5.1l4-5.4l4-5.3l4-5.3l3-5.2l4-5.3l4-5.3l4-5l3-4.9l4-4.7l4-4.4l3-4.5l4-3.9l4-3.8l4-3.6l3-3.3l4-3.1l4-3.1
	l4-3.5l3-3.8l4-3.6l4-3.7l4-3.9l3-4l4-3.9l4-3.6l3-3.3l4-3l4-2.6l4-2.3l3-2.3l4-2.6l4-2.5l4-2.7l3-2.9l4-3.2l4-3.6l4-3.8l3-3.9l4-4
	l4-3.7l3-3l4-2.7l4-2.4l4-1.9l3-1.6l4-1.3l4-1.2l4-0.9l3-0.8l4-0.5l4-0.5l4-0.3l3-0.2l4-0.2l4-0.3l3-0.6l4-0.8l4-0.7l4-0.8l3-0.8
	l4-0.7l4-0.5l4-0.3l3-0.3l4-0.4l4-0.4l4-0.5l3-0.5l4-0.6l4-0.6l3-0.7l4-0.7l4-0.6l4-0.6l3-0.5l4-0.5l4-0.4l4-0.3l3-0.3l4-0.2h4
	l4,0.1l3,0.1l4,0.2l4,0.2l3,0.4l4,0.3l4,0.4l4,0.3l3,0.3l4,0.3l4,0.4l4,0.3l3,0.2l4,0.3l4,0.3l4,0.2l3,0.1l4,0.2l4,0.2l3,0.1l4,0.1
	l4,0.1l4,0.1l3,0.2h4h4h4l3,0.1h4h4l4,0.1h3l4,0.1l4,0.1l3,0.1l4,0.2l4,0.3l4,0.2l3,0.2l4,0.3l4,0.3l4,0.3l3,0.3l4,0.3l4,0.2l4,0.2
	l3,0.2l4,0.2v305.5l-4-0.3l-3,0.2l-4,0.1l-4,0.1l-4-0.1h-3l-4-0.2l-4-0.2l-4-0.2l-3-0.2l-4-0.5l-4-0.5l-4-0.6l-3-0.8l-4-0.7l-4-0.9
	l-3-0.6l-4-0.8l-4-0.5l-4-0.3l-3-0.3l-4-0.4l-4-0.3l-4-0.7l-3-1.3l-4-1.3l-4-1.5l-4-1.3l-3-1l-4-1.1l-4-0.7l-3-0.5l-4-0.3l-4,0.1
	l-4,0.7l-3,1.2l-4,1.3l-4,1.7l-4,1.9l-3,1.9l-4,2.1l-4,2l-4,2.1l-3,1.9l-4,1.9l-4,1.8l-3,1.9l-4,2l-4,2.3l-4,2.7l-3,3l-4,3.4l-4,3.7
	l-4,4.1l-3,4.2l-4,4.3l-4,4.4l-4,4.3l-3,4.1l-4,3.8l-4,3.4l-3,3.2l-4,3.2l-4,3.2l-4,3.4l-3,3.6l-4,3.8l-4,4.1l-4,4.1l-3,4.3l-4,4.4
	l-4,4.6l-4,4.5l-3,4.6l-4,4.5l-4,4.4l-3,4.5l-4,4.5l-4,4.5l-4,4.5l-3,4.5l-4,4.4l-4,3.9l-4,3.6l-3,3l-4,2.3l-4,2.2l-4,1.7l-3,1.5
	l-4,1.5l-4,1.6l-3,1.5l-4,1.2l-4,1.4l-4,1.1l-3,1.1l-4,1.1l-4,1.1l-4,1.1l-3,1.1l-4,1.1l-4,1l-4,1.1l-3,1.2l-4,1.2l-4,1.5l-3,1.5
	l-4,1.7l-4,1.6l-4,1.8l-3,1.6l-4,1.8l-4,1.3l-4,1.5l-3,1.1l-4,1.1l-4,1.1l-4,0.9l-3,1l-4,1l-4,1.2l-3,1l-4,1l-4,1.1l-4,0.9l-3,0.8
	l-4,0.6l-4,0.5l-4,0.7l-3,0.5l-4,0.5l-4,0.6l-4,0.4l-3,0.4l-4,0.5l-4,0.2l-3,0.2l-4,0.1h-4l-4,0.1h-3l-4,0.2l-4-0.1l-4,0.2l-3,0.1
	h-4l-4-0.1l-4-0.1h-3h-4V273.5z"/>
<path class="st4" d="M40,20.3h4h3h4h4h4h3h4h4h4h3h4h4h4h3h4h4h3h4h4h4h3h4h4h4h3h4h4h4h3h4h4h3h4h4h4h3h4h4h4h3h4h4h4h3h4h4h3h4h4
	h4h3h4h4h4h3h4h4h4h3h4h4h3h4h4h4h3h4h4h4h3h4h4h4h3h4h4h3h4h4h4h3h4h4h4h3h4h4h4h3h4h4h3h4h4h4h3h4h4h4h3h4h4h4h3h4h4h3h4h4h4h3h4
	h4h4h3h4h4h4h3h4h4h3h4h4h4h3h4h4h4h3h4h4h4h3h4h4h3h4h4h4h3h4h4h4h3h4h4h4h3h4V91l-4-0.2l-3-0.2l-4-0.2l-4-0.2l-4-0.3l-3-0.3
	l-4-0.3l-4-0.3l-4-0.3l-3-0.2l-4-0.2l-4-0.3l-4-0.2l-3-0.1l-4-0.1l-4-0.1h-3l-4-0.1h-4h-4l-3-0.1h-4h-4h-4l-3-0.2l-4-0.1l-4-0.1
	l-4-0.1l-3-0.1l-4-0.2l-4-0.2l-3-0.1l-4-0.2l-4-0.3l-4-0.3l-3-0.2l-4-0.3l-4-0.4l-4-0.3l-3-0.3l-4-0.3l-4-0.4l-4-0.3l-3-0.4l-4-0.2
	l-4-0.2l-3-0.1l-4-0.1h-4l-4,0.2l-3,0.3l-4,0.3l-4,0.4l-4,0.5l-3,0.5l-4,0.6l-4,0.6l-4,0.7l-3,0.7l-4,0.6l-4,0.6l-3,0.5l-4,0.5
	l-4,0.4l-4,0.4l-3,0.3l-4,0.3l-4,0.5l-4,0.7l-3,0.8l-4,0.8l-4,0.7l-4,0.8l-3,0.6l-4,0.3l-4,0.2l-3,0.2l-4,0.3l-4,0.5l-4,0.5l-3,0.8
	l-4,0.9l-4,1.2l-4,1.3l-3,1.6l-4,1.9l-4,2.4l-4,2.7l-3,3l-4,3.7l-4,4l-3,3.9l-4,3.8l-4,3.6l-4,3.2l-3,2.9l-4,2.7l-4,2.5l-4,2.6
	l-3,2.3l-4,2.3l-4,2.6l-4,3l-3,3.3l-4,3.6l-4,3.9l-3,4l-4,3.9l-4,3.7l-4,3.6l-3,3.8l-4,3.5l-4,3.1l-4,3.1l-3,3.3l-4,3.6l-4,3.8
	l-4,3.9l-3,4.5l-4,4.4l-4,4.7l-3,4.9l-4,5l-4,5.3l-4,5.3l-3,5.2l-4,5.3l-4,5.3l-4,5.4l-3,5.1l-4,4.6l-4,4.4l-4,3.8l-3,3.6l-4,3.3
	l-4,2.1l-3,1l-4,0.5l-4-0.5l-4-0.7l-3-1.4l-4-1.9l-4-2.3l-4-2.6l-3-2.5l-4-2.4l-4-2.4l-4-1.7l-3-1l-4-0.9V20.3z"/>
<text transform="matrix(1 0 0 1 173.6608 60.2762)" class="st5 st6 st7">0-14 (Children)</text>
<text transform="matrix(1 0 0 1 267.0967 305.2762)" class="st8 st6 st7">15-64 (Working age)</text>
<text transform="matrix(1 0 0 1 396.4828 570.2762)" class="st8 st6 st7">65+ (Elderly)</text>
<text transform="matrix(1 0 0 1 40 15.2762)" class="st9 st10">Taiwan’s age distribution 1950 to 2100</text>
<g>
	<text transform="matrix(1 0 0 1 59.377 636.1)" class="st0 st1">1960</text>
</g>
<g>
	<text transform="matrix(1 0 0 1 134.377 636.1)" class="st0 st1">1980</text>
</g>
<g>
	<text transform="matrix(1 0 0 1 209.377 636.1)" class="st0 st1">2000</text>
</g>
<g>
	<text transform="matrix(1 0 0 1 283.377 636.1)" class="st0 st1">2020</text>
</g>
<g>
	<text transform="matrix(1 0 0 1 358.377 636.1)" class="st0 st1">2040</text>
</g>
<g>
	<text transform="matrix(1 0 0 1 433.377 636.1)" class="st0 st1">2060</text>
</g>
<g>
	<text transform="matrix(1 0 0 1 507.377 636.1)" class="st0 st1">2080</text>
</g>
<g>
	<text transform="matrix(1 0 0 1 582.377 636.1)" class="st0 st1">2100</text>
</g>
</svg>
